<svg width="236" height="245" viewBox="0 0 236 245" fill="none" xmlns="http://www.w3.org/2000/svg">
<path d="M69.9371 1.29048C70.6037 1.95715 74.8704 5.95715 79.5371 10.2238C86.8704 17.1571 88.2037 17.9571 90.4704 16.4905C92.8704 15.0238 93.0037 15.1571 91.5371 18.0905C90.3371 20.7571 90.6037 22.2238 93.1371 26.0905C94.7371 28.7571 96.7371 30.8905 97.6704 30.8905C98.7371 30.8905 99.2704 32.0905 98.8704 33.9571C98.2037 37.5571 100.47 44.2238 102.47 44.2238C103.27 44.2238 104.47 42.7571 105.27 41.0238C109.27 32.2238 96.8704 12.7571 81.9371 4.09048C75.9371 0.623814 66.6037 -1.50952 69.9371 1.29048Z" fill="black"/>
<path d="M156.07 3.15715C153.004 4.89048 147.537 9.02381 143.804 12.4905C131.804 23.8238 126.204 44.2238 135.27 44.2238C137.937 44.2238 140.604 34.2238 138.604 31.8238C137.404 30.2238 137.67 29.6905 139.67 29.1571C141.137 28.7571 143.537 26.4905 145.004 24.0905C147.537 19.9571 147.537 19.5571 145.404 17.0238C143.27 14.6238 143.27 14.6238 145.937 16.2238C148.47 17.8238 149.27 17.2905 155.004 11.1571C158.604 7.42381 162.604 3.95715 163.937 3.55715C165.27 3.02381 166.47 2.09048 166.47 1.42381C166.47 -0.70952 161.804 0.0904803 156.07 3.15715Z" fill="black"/>
<path d="M2.33709 16.0905C-0.462911 18.3571 -0.596244 18.7571 1.13709 23.0238C2.20376 25.4238 7.13709 31.8238 12.2038 37.1571C19.5371 44.8905 21.9371 46.6238 23.2704 45.4238C24.3371 44.6238 26.8704 44.2238 29.1371 44.4905C34.6038 45.2905 34.2038 42.7571 28.2038 38.4905C22.2038 34.2238 20.3371 35.0238 25.8038 39.5571C30.2038 43.1571 28.3371 43.9571 22.7371 41.0238C17.9371 38.4905 3.80376 23.5571 3.80376 21.0238C3.80376 17.2905 11.6704 18.4905 20.6038 23.5571C30.2038 28.8905 31.9371 30.8905 27.5371 31.0238C24.6038 31.0238 24.6038 31.1571 27.0038 32.6238C33.4038 36.6238 38.3371 41.8238 37.5371 43.8238C37.0038 45.1571 38.7371 47.6905 42.4704 51.0238C49.2704 57.2905 48.6038 57.6905 40.7371 52.0905C33.9371 47.2905 23.1371 45.0238 24.6038 48.7571C25.0038 49.9571 27.0038 51.2905 29.0038 51.6905C33.0038 52.4905 45.1371 57.5571 47.1371 59.1571C47.8038 59.8238 45.8038 59.4238 42.6038 58.2238C36.0704 55.9571 31.4038 55.5571 32.0704 57.4238C32.7371 59.5571 49.2704 72.3571 54.2038 74.6238C58.0704 76.4905 58.7371 76.4905 59.8038 74.8905C62.7371 70.3571 59.9371 60.0905 53.0038 50.0905C45.8038 39.6905 29.1371 23.8238 20.4704 19.4238C9.40376 13.6905 6.07042 13.0238 2.33709 16.0905ZM47.1371 49.8238C48.3371 51.9571 49.0038 53.5571 48.7371 53.5571C47.6704 53.5571 38.4704 41.1571 38.4704 39.6905C38.4704 38.0905 43.8038 44.3571 47.1371 49.8238Z" fill="black"/>
<path d="M215.67 19.1571C198.337 27.8238 178.737 51.8238 176.47 67.5571C175.537 73.1571 175.537 73.2905 173.004 70.7571C169.804 67.5571 166.87 67.5571 161.67 70.7571C157.67 73.1571 148.47 83.4238 142.47 92.0905C139.804 95.9571 139.137 96.3571 137.804 94.4905C135.27 91.0238 129.67 89.5571 118.47 89.5571C107.404 89.5571 101.537 91.0238 99.0038 94.3571C97.6704 96.0905 96.4704 95.1571 91.4038 88.6238C81.6704 75.9571 73.9371 69.5571 68.4704 69.5571C64.2038 69.5571 63.4038 70.0905 61.6704 74.3571C60.6038 77.0238 60.0704 80.3571 60.6038 81.9571C62.2038 87.0238 70.7371 96.3571 78.8704 101.824C84.7371 105.824 86.4704 107.69 85.8038 109.29C82.3371 117.424 81.8038 133.824 84.4704 144.357C85.2704 147.29 84.7371 148.09 81.5371 149.424C77.2704 151.29 64.7371 165.69 61.0038 173.157C57.5371 179.957 57.8038 183.69 61.9371 187.557C66.4704 191.824 72.4704 191.957 76.0704 187.824C78.2038 185.424 86.8704 171.557 94.0704 159.157C95.0038 157.69 96.4704 157.824 102.204 160.09C111.004 163.557 124.07 163.824 134.204 160.624C140.604 158.624 141.67 158.49 142.737 160.224C143.404 161.29 147.004 167.557 150.87 174.224C156.07 183.157 159.137 186.89 162.737 188.89C167.404 191.29 167.804 191.424 172.337 189.157C179.004 186.09 179.67 181.957 175.137 172.757C171.137 164.757 158.337 149.957 153.67 148.224C150.737 147.024 150.737 146.89 152.87 141.29C155.67 133.424 155.404 120.757 152.204 113.29L149.537 107.29L155.27 103.69C158.337 101.69 164.337 96.4905 168.337 92.0905C174.337 85.5571 175.804 83.1571 175.804 79.5571C175.804 76.3571 176.337 75.1571 177.537 75.6905C178.47 75.9571 182.87 73.9571 187.137 71.0238C204.337 59.5571 208.737 53.2905 196.337 57.8238C193.137 58.8905 190.47 59.4238 190.47 58.8905C190.47 55.5571 212.737 42.2238 216.204 43.6905C217.937 44.3571 227.404 33.8238 233.67 23.9571C239.804 14.4905 230.204 11.9571 215.67 19.1571ZM231.804 20.3571C231.804 22.7571 223.804 33.4238 219.804 36.3571C217.67 37.9571 216.204 39.9571 216.337 40.7571C216.604 41.5571 216.47 41.8238 216.204 41.2905C215.804 40.7571 214.07 41.0238 212.07 41.6905C210.07 42.4905 207.404 43.2905 206.204 43.5571C204.87 43.8238 201.67 45.6905 199.137 47.6905C196.604 49.5571 194.47 50.6238 194.47 49.9571C194.47 48.6238 203.27 37.8238 206.47 35.2905C207.537 34.3571 207.937 33.5571 207.404 33.5571C206.87 33.5571 201.937 37.9571 196.47 43.4238C191.004 48.7571 186.47 52.7571 186.47 52.0905C186.47 50.2238 200.737 34.0905 206.337 29.6905C215.937 22.0905 231.804 16.2238 231.804 20.3571ZM131.804 101.824C142.337 105.69 149.004 115.824 149.137 127.957C149.137 144.624 138.604 153.557 118.737 153.557C96.7371 153.557 86.0704 143.424 88.3371 124.357C89.5371 114.624 92.3371 109.157 98.3371 105.024C106.47 99.2905 121.27 97.9571 131.804 101.824Z" fill="black"/>
<path d="M210.47 36.2238C206.204 41.6905 205.937 43.5572 210.204 39.1572C215.537 33.4238 217.404 30.8905 216.07 30.8905C215.27 30.8905 212.737 33.2905 210.47 36.2238Z" fill="black"/>
<path d="M19.8038 29.5571C19.8038 30.2238 20.4704 30.8905 21.2704 30.8905C21.9371 30.8905 22.2038 30.2238 21.8038 29.5571C21.4038 28.7571 20.7371 28.2238 20.3371 28.2238C20.0704 28.2238 19.8038 28.7571 19.8038 29.5571Z" fill="black"/>
<path d="M105.27 44.3571C103.27 45.1571 102.47 46.2238 103.004 47.5571C103.404 48.7571 102.47 52.0905 100.87 55.0238C94.3371 67.5571 104.47 88.7571 115.937 86.3571C118.204 85.9571 121.004 86.0905 122.204 86.7571C125.804 88.6238 130.07 86.0905 133.67 79.9571C138.604 71.4238 139.404 64.6238 135.937 56.8905C134.337 53.2905 133.404 49.4238 133.804 48.0905C134.47 46.2238 133.537 45.4238 129.537 44.3571C123.404 42.6238 109.67 42.6238 105.27 44.3571Z" fill="black"/>
<path d="M207.537 49.1572C204.07 51.1572 201.27 52.8905 201.537 53.0238C202.604 54.0905 209.27 51.5572 212.604 48.7572C217.67 44.6238 215.404 44.8905 207.537 49.1572Z" fill="black"/>
<path d="M91.8038 56.0905C89.6704 60.2238 90.2038 65.2905 93.0038 66.8905C95.2704 68.0905 95.6704 67.5571 97.0038 61.4238C98.8704 53.0238 98.8704 53.5571 95.8038 53.5571C94.4704 53.5571 92.6038 54.7571 91.8038 56.0905Z" fill="black"/>
<path d="M139.137 57.8238C141.137 66.6238 142.337 68.6238 144.47 66.8905C148.604 63.5571 145.937 53.5571 141.004 53.5571C138.604 53.5571 138.337 54.0905 139.137 57.8238Z" fill="black"/>
<path d="M102.07 168.49C101.67 170.89 100.07 179.957 98.4704 188.624C95.1371 206.624 95.5371 210.49 100.87 211.557C102.87 211.957 106.337 212.89 108.47 213.424C112.07 214.49 111.67 214.624 105.404 214.757L98.3371 214.89L100.47 218.757C103.404 224.49 110.87 229.69 118.204 231.024C125.404 232.49 128.87 230.624 134.204 222.89C138.604 216.224 138.07 214.89 130.87 214.757C125.537 214.757 125.004 214.49 127.804 213.557C129.67 213.024 132.737 212.09 134.604 211.69C141.937 210.09 142.337 200.624 136.204 173.824L133.937 164.09L128.604 165.157C121.804 166.357 116.737 166.357 109.004 165.024L102.737 163.957L102.07 168.49Z" fill="black"/>
<path d="M50.4705 184.89C48.3371 187.424 50.4705 187.424 53.9371 184.89C56.0705 183.29 56.0705 183.024 54.3371 182.89C53.1371 182.89 51.4038 183.824 50.4705 184.89Z" fill="black"/>
<path d="M179.804 183.557C179.804 183.824 181.67 185.024 183.804 186.224C187.804 188.357 189.137 187.424 186.204 184.49C184.604 182.89 179.804 182.224 179.804 183.557Z" fill="black"/>
<path d="M51.8038 188.224C49.2705 189.557 43.0038 195.024 37.8038 200.357L28.4705 209.957L36.3371 205.69C40.6038 203.29 44.3371 201.69 44.6038 201.957C44.8705 202.224 39.2705 206.49 31.9371 211.29C17.2705 221.157 2.47046 234.49 2.47046 237.824C2.47046 240.89 6.07046 244.224 9.67046 244.224C15.0038 244.224 26.8705 237.157 34.6038 229.29C43.9371 219.824 50.8705 209.69 49.9371 206.624C49.5371 205.024 50.2038 204.224 51.6705 204.224C55.0038 204.224 61.8038 189.957 59.6705 187.424C57.8038 185.157 57.5371 185.157 51.8038 188.224ZM37.1371 219.557C34.3371 228.224 15.5371 241.557 9.13713 239.557C5.67046 238.49 5.80379 237.29 9.53713 233.957C13.8038 230.224 30.0705 218.89 31.2705 218.89C31.8038 218.89 30.6038 220.624 28.4705 222.89C26.3371 225.024 25.2705 226.89 26.0705 226.89C27.9371 226.89 34.4705 219.29 34.4705 217.024C34.4705 216.224 35.2705 214.624 36.0705 213.824C38.4705 211.424 39.0038 213.957 37.1371 219.557Z" fill="black"/>
<path d="M177.137 191.157C177.137 200.224 182.604 205.957 188.204 203.024C191.137 201.424 192.204 201.69 197.404 204.757C200.737 206.624 204.204 208.224 205.27 208.224C207.804 208.224 195.004 195.424 187.937 190.757C179.804 185.557 177.137 185.69 177.137 191.157Z" fill="black"/>
<path d="M188.604 204.89C185.67 207.957 188.07 213.29 196.87 223.29C206.07 233.69 210.737 237.69 218.07 241.424C226.87 245.824 233.137 244.89 233.137 239.157C233.137 234.224 218.204 220.224 202.737 210.624C191.937 203.824 190.337 203.157 188.604 204.89ZM208.204 218.757C212.47 221.157 215.67 223.557 215.27 223.824C214.87 224.224 212.47 223.157 209.804 221.557C207.137 219.957 204.737 218.89 204.337 219.29C203.27 220.224 210.604 225.557 213.004 225.557C214.204 225.557 218.337 227.69 222.204 230.224C230.204 235.69 231.67 240.224 225.404 240.224C219.937 240.224 205.67 230.09 202.204 223.69C200.204 220.09 198.47 213.29 199.537 213.824C200.07 214.09 203.937 216.224 208.204 218.757Z" fill="black"/>
</svg>
