<?xml version="1.0" encoding="UTF-8"?><svg id="Layer_1" xmlns="http://www.w3.org/2000/svg" viewBox="0 0 1024 604"><defs><style>.cls-1{fill:#f8f90a;}.cls-2{fill:#fefefd;}.cls-3{fill:#545454;}</style></defs><path class="cls-3" d="M0,199V0h1024v199c-2.74.91-4.7,2.49-4.78,5.65.7,1.58-.02,3.34.76,4.98.76,1.6.33,3.06-1.17,4.37-1.85,1.61-3.47,3.5-4.29,5.95-.45,1.34-1.58,1.59-2.82,1.04-1.95-.86-3.88-1.77-5.92-2.7-.89,1.15-1.68,2.17-1.89,3.53-1.7,1.53-1.77,3.85-2.63,5.77-.82,1.83-.17,3.48,1.72,4.64,1.36.83,3.1,1.21,3.97,2.74-.36,1.03-.74,1.95-1.01,2.89-1.46,5.03-3.88,8.66-10.04,7.15-.79-.2-1.53.09-1.88,1.13-1.13,3.37-1.32,6.86-.9,10.3.22,1.76,1.73,3,3.6,3.38.8.16,1.66.1,2.49.05,1.83-.12,2.75.45,2.65,2.53-.14,2.99-.14,6.01.09,8.99.18,2.3-.94,3.3-2.84,4.03-3.46,1.34-3.47,1.38-3.26,4.74.47,7.77.31,7.01,7.02,6.75,2.75-.11,3.95,1.2,4.74,3.39,1.06,2.98,2.6,5.71,4.24,8.39-2.33,2.75-5.52,4.28-8.69,5.66-5.39,2.35-8.97,5.55-7.26,12.07.08.31-.03.67.01,1,.24,1.79-.88,3.73.18,5.35,1.16,1.78,3.37.97,5.07,1.48,1.67.5,2.87,1.08,2.83,3.35-.12,7.11,0,7.15-7.46,8.06-1.47.18-2.42.55-2.82,2.17-.76,3.06-1.74,6.06-2.62,9.09-.52,1.8-.11,3.17,1.54,4.29,1.46.99,3.94.78,4.32,2.94.34,1.88-1.61,3.16-2.04,4.94-.35,1.44-.79,2.88-1.32,4.27-.38.99-1.01,1.55-2.31,1.09-2.15-.75-4.37-2.7-6.53-1.64-2.05,1.01-2.29,3.92-3.57,5.85-.18.27-.31.59-.45.89-.89,1.9-3.39,3.24-2.84,5.53.52,2.14,3.07,2.9,4.53,4.48.22.23.32.57.53.97-1.77,2.35-3.52,4.77-5.36,7.12-1.63,2.09-1.97,2.15-4.07.8-1.68-1.07-3.12-2.94-5.06-3.06-2.31-.14-3.21,2.64-5.07,3.63-5.06,2.68-7,6.27-3.74,11.61.46.74.6,1.8-.24,2.23-2.51,1.28-5.02,2.81-7.71,3.38-1.81.38-2.63-2.25-4.07-3.32-.26-.2-.49-.45-.72-.69-1.59-1.62-3.22-2.04-5.32-.68-1.94,1.26-4.04,2.34-6.2,3.17-2.35.9-2.93,2.39-2.43,4.68.35,1.59.54,3.21.79,4.71-.44.32-.68.63-.97.68-3.4.63-6.81,1.23-10.18,1.83-1.58-2.06-1.46-4.55-2.47-6.64-.69-1.44-1.55-2.18-3.07-1.78-3.1.82-6.27.7-9.42.89-2.76.17-3.04.52-3.46,3.14-.28,1.75.86,3.97-.77,5.18-1.47,1.09-3.54.26-5.34.23-5.35-.09-5.35-.13-5.72-5.68-.03-.5-.15-1-.11-1.49.17-2.13-1.09-3.03-2.92-3.29-2.98-.41-5.86-1.21-8.69-2.17-1.91-.65-3.18-.06-4.15,1.61-.98,1.7-2.04,3.37-3.15,5.19-3.15-1.46-6.12-2.83-9.29-4.29.54-1.88.92-3.65,1.55-5.32.8-2.13.11-3.33-1.79-4.47-2.69-1.63-5.26-3.52-7.71-5.5-1.65-1.33-2.78-1.17-4.23.27-1.6,1.59-2.99,4.41-5.3,4.02-2.12-.36-3.34-3.05-4.86-4.8-.86-.99-1.84-1.93-2.28-3.46,1.15-1.28,2.31-2.68,3.6-3.97,1.19-1.2,1.08-2.26.04-3.47-2.05-2.4-4.06-4.84-6.06-7.29q-2.76-3.38-6.65-.85c-.42.27-.85.53-1.26.8-1.35.9-2.46.76-3.36-.67-1.46-2.33-3.51-4.32-4.54-6.96,1.54-1.2,2.83-2.24,4.15-3.24,1.55-1.17,1.84-2.39,1-4.29-1.33-3.02-2.22-6.23-3.33-9.35-1.06-2.99-1.07-2.98-4.25-2.56-1.75.24-3.5.44-4.99.63-.98-1.26-.61-2.33-.86-3.27-.58-2.22-2.1-4.78-1.47-6.58.81-2.31,4.19-2.2,6.48-2.98,1.77-.61,2.41-1.4,2.21-3.21-.36-3.31-.68-6.62-.81-9.94-.08-1.99-.74-2.87-2.79-3.32-6.47-1.42-12.87-3.13-19.3-4.72-.67-.27-1.39-1.02-1.03-1.45,2.08-2.47,3.03-5.48,4.29-8.35.76-1.74,2.03-2.68,3.97-1.98,1.28.47,2.57.65,3.9.78,1.91.18,3.34-.27,3.57-2.45.17-1.69.76-3.25,1.49-4.73.77-1.55-.15-2.19-1.29-2.62-.76-.28-1.66-.15-2.46-.35-3.81-.94-4.66-2.09-4.69-6.16,0-1.33-.12-2.68,0-4,.51-5.32.92-5.69,6.14-5.9.5-.02,1.01.06,1.5-.01,1.56-.23,2.37-1.11,2.15-2.74-.25-1.81-.57-3.6-.81-5.41-.48-3.58-1.52-4.57-5.07-4.69-1-.03-2-.05-3,0-1.54.08-2.39-.59-2.95-2.06-.82-2.16-1.27-4.42-2.32-6.52-1.48-2.98-1.14-3.54,1.93-5.35,2.33-1.37,3.13-3.46,2.16-5.66-2.41-5.48-6.27-6.91-11.8-4.37-.15.07-.34.09-.44.2-1.65,1.8-2.86.78-4.09-.58-1.34-1.48-2.61-3.06-4.15-4.3-2.96-2.39-3.09-2.81-.69-5.55,2.21-2.52,2.05-4.3-.11-6.86-1.73-2.05-4.23-2.26-6.38-3.33-1.52-.75-2.21-.45-3.14.98-4.31,6.57-4.37,6.53-11.94,3.81-.15-.06-.28-.19-.43-.24q-4.45-1.64-4.52-6.39c0-.67,0-1.33,0-2-.02-1.6-.93-2.48-2.44-2.59-1.99-.14-4-.19-6-.15-2.91.05-3.32.51-3.55,3.53-.05.66-.1,1.34-.03,2,.24,2.12-.83,2.96-2.78,3.33-3.09.59-6.14,1.35-9.2,2.07-1.55.37-2.3-.27-3.14-1.63-1.1-1.77-1.09-4.49-3.33-5.23-2.42-.81-4.37,1.24-6.53,1.98-2.87.99-3.05,1.18-2.24,4.35.96,3.73-.22,6.43-3.09,8.66-.66.51-1.29,1.05-1.94,1.57-3.98,3.13-6.69,3.44-10.6.41-1.79-1.39-2.78-1.36-4.05.23-1.55,1.94-3.11,3.88-4.64,5.84-.64.81-.34,1.54.34,2.17.73.68,1.45,1.38,2.21,2.03q2.32,2,1,4.78c-.29.6-.59,1.19-.88,1.79-.93,1.93-1.42,4.32-2.88,5.68-1.79,1.66-4.47.32-6.75.34-1.53.02-2.27.51-3.09,1.85-1.87,3.09-1.25,6.35-1.5,9.61,1.51.28,2.77.12,4.03.46,2.91.78,2.97.67,2.96,3.53,0,2.5-.11,5-.09,7.5.05,4.84.07,4.84-5.03,5.03-.5.02-1,.09-1.5.07-2.09-.07-2.57,1.15-2.28,2.89.38,2.26.68,4.55,1.34,6.74.4,1.33,1.39,2.79,3.16,2.15,4.91-1.77,6.69.93,7.93,5.03.85,2.82,3.18,5.05,3.49,8.14-.74.66-1.66,1.2-2.18,2-2.29,3.51-5.34,5.76-9.57,6.26-.32.04-.65.18-.92.37-.55.39-1.03.84-.9,1.62.48,2.78.98,5.56,1.44,8.35.2,1.24.99,1.61,2.11,1.59.83-.02,1.67,0,2.5-.01q5.17-.04,5.49,5.13c.06,1,.1,2,.1,3,.02,2.94-.39,3.42-3.27,3.85-.66.1-1.33.1-2,.08-1.65-.05-2.41.76-2.52,2.38-.16,2.32-.35,4.65-.64,6.96-.23,1.8-1.04,3.71-.1,5.37.94,1.67,3.02.98,4.57,1.44,2.76.82,3.75,2.22,2.82,4.8-1,2.79-1.61,5.68-2.44,8.76-2.14-.58-4.04-1.1-5.94-1.61-1.83-.49-3.23-.19-3.97,1.85-.62,1.71-1.48,3.35-2.22,5.01-.74,1.66-2.06,3.31-2.08,4.98-.03,2.09,2.36,3.04,3.78,4.35,1.58,1.46,1.71,2.67.3,4.2-.45.49-.79,1.07-1.19,1.6-1.2,1.59-2.09,3.75-3.68,4.61-2.24,1.21-3.7-1.53-5.57-2.4-1.89-.89-3.06-.52-4.24,1.08-1.08,1.47-2.28,2.89-3.61,4.14-5.03,4.74-4.97,3.36-1.43,9.75.13.23-.02.61-.04,1-.9.65-1.85,1.31-2.78,2-1.06.8-2.18,1.56-3.13,2.48-1.36,1.31-2.33,1.27-3.7-.18-3.59-3.76-3.66-3.69-8.59-1.65-.31.13-.62.24-.92.37-1.98.84-4.47,1.21-5.79,2.66-1.57,1.73-.33,4.47-.49,6.76-.02.33.02.67.03,1,.03.93-.34,1.73-1.3,1.78-3.15.17-5.93,1.92-9.07,2.26-.26-.67-.49-1.11-.59-1.58q-1.55-6.87-8.5-6.35c-.33.02-.67.03-1,.08-1.96.3-4.27-.59-5.83.72-1.53,1.28-1.56,3.54-1.75,5.52-.12,1.24-.76,1.74-1.98,1.63-.83-.08-1.66-.13-2.49-.16-6-.21-6.05-.21-6.38-6.09-.09-1.69-.44-2.78-2.32-3.17-3.25-.67-6.46-1.54-9.68-2.34-1.54-.39-2.45.22-3.24,1.57-.81,1.39-.74,3.75-2.57,3.99-1.5.2-3.16-.77-4.73-1.26-1.27-.4-2.49-.99-3.78-1.27-2.03-.44-2.23-1.65-1.72-3.33.67-2.19,2.12-4.54,1.22-6.66-.89-2.11-3.62-2.76-5.5-4.11-1.75-1.26-3.48-3.2-5.38-3.43-2.33-.28-3.63,2.61-5.61,3.79-.27.16-.61.2-1.1.34-2.23-1.61-3.78-4.02-5.73-6.03-1.01-1.05-.92-2.03-.03-3.05.55-.63,1.12-1.24,1.63-1.89q1.95-2.53.16-5.17c-.47-.69-.98-1.35-1.49-2.01-1.51-1.96-2.35-4.85-4.54-5.78-2.32-.99-4.5,1.5-6.88,2.04-.14.03-.31-.05-.6-.1-1.22-1.29-1.68-3.08-2.39-4.74-.71-1.67-2.08-3.38-1.98-4.99.13-2.13,2.86-2.42,4.33-3.67.25-.21.52-.42.78-.62.88-.67,1.29-1.48.89-2.59-1.22-3.44-2.43-6.89-3.63-10.34-.45-1.27-1.33-1.84-2.68-1.7-.99.11-2,.16-2.97.35-1.3.26-1.84-.48-2.14-1.52-.23-.79-.48-1.62-.48-2.43-.02-2.15-1.84-4.36-.62-6.29,1.19-1.87,3.83-1.7,5.87-2.24,2.02-.54,2.54-1.69,2.58-3.61.06-2.65.23-5.3.77-7.94.66-3.27-.02-4.03-3.42-4.69-.81-.16-1.64-.26-2.47-.29q-4.84-.21-5.1-4.82c-.05-.83-.13-1.67-.08-2.5.11-1.81-1.02-3.76.09-5.37,1.2-1.74,3.4-.77,5.11-1.2,1.2-.3,2.19-.73,2.14-2.26-.11-3.6-.16-7.21-.25-11.33-3.03,1.06-5.62,1.51-8.28,1.18-2.04-3.83-2.32-8.25-4.18-12.19-.8-1.69-.39-3.53,1.67-5.12,3.28-2.53,3.16-4.47.61-7.47-.75-.89-1.55-1.74-2.3-2.63q-2.58-3.07-5.77-.73c-.52.38-1.08.69-1.69,1.08-2.52-2.37-4.81-4.75-7.35-6.85-2.24-1.86-2.69-3.67-1.54-6.44,1.31-3.15.99-3.31-2.02-5.01-.85-.48-1.6-1.17-2.35-1.82-3.31-2.85-4.33-2.75-6.81.92-1.03,1.53-1.94,1.98-4.05,1.59-3.57-.66-6.36-3.09-9.93-3.6-1.22-.17-1.51-1.41-1.74-2.68-1.27-6.99-.1-6.28-7.12-6.3-.33,0-.66.03-1,.03-3.9.08-3.96.07-4.81,3.84-.35,1.56-.75,3.27-2.61,3-3.76-.55-7.27.25-10.77,1.34-1.43.44-2.19-.07-2.54-1.46-.24-.96-.56-1.89-.84-2.84-.41-1.45-2.11-2.75-2.76-2.5-3.42,1.3-7.95,0-10.18,4.15.25.54.52,1.12.78,1.7,1.73,3.82,1.37,5.07-2.22,7.2-1.29.77-2.48,1.61-3.6,2.63-1.58,1.44-3.57,2.36-5.58,2.89-1.98.52-2.3-1.94-3.69-2.76-2.55-1.5-3.43-1.68-5.6.32-.61.56-1.18,1.17-1.77,1.76-3.33,3.3-3.59,3.93-1.38,8.14.73,1.39.84,2.3.16,3.59-1.45,2.73-2.81,5.51-4.21,8.26-1.52,2.98-1.68,3.08-4.88,2.81-3.96-.34-3.9-.31-5.42,3.16-.55,1.25-.78,2.5-.98,3.82-.52,3.39-.44,3.62,2.42,4.9,2.88,1.29,3.16,1.35,2.5,4.36-.87,3.95-.59,7.94-1.03,11.9-4.84-.4-9.36-1.99-13.83-3.75-1.11-.44-2.14-.97-2.17-2.4.73-1.1,1.47-2.2,2.19-3.31.98-1.51,2.55-2.78,2.8-4.58.35-2.56-2.74-2.24-3.78-3.91-1.04-1.67-2.63-2.94-1.67-5.15,1.17-2.7,2.29-5.43,3.6-8.06,1.73-3.46,1.82-3.44,5.77-2.5,3.86.91,4.18.77,5.76-2.59,2.69-5.73,2.72-5.86-2.93-8.47-2.81-1.3-4-3.11-3.6-6.22.3-2.3.12-4.66.28-6.99.16-2.45,1.5-3.83,3.91-4.2.82-.12,1.67-.07,2.49-.19,1.82-.27,3.37-1.38,3.45-3.08.12-2.71.93-5.72-1.41-8.01-.4-.39-1.24-.4-1.88-.44-1.33-.07-2.67-.02-4-.05-3.5-.09-4.39-.8-4.67-4.26-.18-2.17-.4-4.3-1.09-6.37-1.21-3.6-1.13-3.75,2.29-4.96q4.89-1.73,3.78-7.27c-.16-.8.04-1.68-.14-2.48-.54-2.35-1.35-3.06-3.74-3.01-2.15.04-4.39-.22-6.43.6-1.95.79-3.25-.27-3.44-1.7-.3-2.25-1.76-3.38-3.08-4.85-2.94-3.27-2.69-5.61.62-8.65.25-.22.49-.45.73-.68q2.59-2.42.27-5.02c-.22-.25-.41-.53-.67-.74-1.76-1.48-2.69-4.56-4.87-4.62-1.98-.05-4.14,1.69-5.97,2.98-1.83,1.29-3.3,1-4.96-.12-3.35-2.24-6.53-4.65-9.52-8.03,3.99-.69,2.53-4.29,3.97-6.35.36-.52,0-1.38-.6-1.75-2.38-1.44-4.64-3.41-7.64-3.08-2.37.26-3.5,2.28-4.47,4.19-.89,1.75-2.19,2.14-4.05,1.96-2.54-.25-4.73-1.39-7.03-2.29-3.03-1.19-5.25-2.81-4.17-6.66.3-1.08.07-2.32.08-3.49,0-.89-.23-1.6-1.25-1.83-3.02-.67-6.1-2.58-9.06-1.39-1.91.77-1.52,3.74-2.07,5.75-.13.48-.29.95-.4,1.44-.27,1.18-1.09,1.57-2.19,1.57-3.83,0-7.67.07-11.5,0-2.14-.05-3.02-1.21-2.96-3.44.04-1.4-.53-2.85-.97-4.23-.27-.83-1.14-1.58-1.92-1.13-2.22,1.28-4.58.46-6.84.76-1.69.22-2.79.93-2.72,2.86.07,1.83.06,3.67.01,5.5-.07,2.96-.37,3.4-3.19,4.18-1.9.53-3.85.71-5.72,1.55-3.8,1.71-4.35,1.37-6.12-2.65-.13-.3-.12-.66-.25-.95-1.2-2.59-2.78-3.26-5.45-2.26-.77.29-1.5.69-2.23,1.07-1.75.92-4.14,1.43-5.08,2.88-1.27,1.96.95,3.9,1.69,5.84,1.34,3.48.82,5.2-2.54,6.72-1.2.54-2.51.78-3.42,1.84-1.05,1.23-1.49,3.18-3.35,3.45-1.85.27-2.3-2.17-4.11-2.46-.78-.12-1.83-.6-2.43-1.52-1.2-1.83-2.52-1.17-3.61.1-1.86,2.17-3.62,4.43-5.65,6.94,2.37,2.26,4.61,4.39,6.89,6.57-1.8,2.81-3.59,5.59-5.36,8.39-2.11,3.33-2.44,3.46-6.46,2.31-.63-.18-1.25-.43-1.89-.54-2.75-.47-3.77-.02-4.56,2.53-.38,1.25-.68,2.5-1.24,3.7-1.78,3.8-1.57,4.72,2.25,6.44,1.77.8,3.1,2.22,2.73,3.58-.89,3.23-.48,6.66-1.79,9.75-.8,1.9-1.86,3.44-4.38,3.07-1.3-.19-2.66-.02-3.99,0-1.6.02-2.45.88-2.6,2.43-.1.99.07,2.04-.18,2.99-.92,3.37,1.63,4.49,3.71,5.9,1.18.8,2.59.34,3.89.53,1.07.16,2,.52,2.14,1.7.45,3.6.83,7.21,1.22,10.82.08.7-.23,1.64-.84,1.55-2.65-.39-4.07,1.93-6.22,2.65-3.18,1.07-3.21,1.32-1.88,4.32.87,1.96.62,4.57,2.34,5.91,1.81,1.41,4.19.25,6.29.06,2.04-.19,3.02.6,3.72,2.43.95,2.46,2.18,4.82,3.28,7.23,1.72,3.79,1.56,3.59-1.75,6.1-1.19.9-2.85.9-3.89,2.51,1.79,3.58,3.79,7.16,6.55,10.39,1.75-.57,3.55-.95,5.16-1.74,2.05-1,3.41-.58,4.59,1.28,1.9,2.98,4.39,5.4,7.25,7.45-.47.71-1.08,1.19-1.9,1.52-4.15,1.68-8.32,3.32-12.4,5.16-2.71,1.22-6.26,1.1-8.08,3.53-1.87,2.5-1.6,6.01-2.46,9.03-.09.32-.19.64-.29.96-.54,1.72-.08,2.76,1.75,3.43,2.01.74,3.88,1.86,5.8,2.84,1.08.55,1.28,1.37.74,2.47-1.18,2.38-2.45,4.73-3.43,7.19-.68,1.7-1.67,1.83-3.11,1.29-2.12-.79-3.91-2.41-6.38-2.8-2.04,3.37-4.03,6.66-6.99,9.15-1.28,1.07-1.26,2.23-.35,3.48.97,1.35,1.93,2.71,2.95,4.02.84,1.09,1.03,2.07-.21,2.97-2.37,1.74-4.74,3.48-7.23,5.3-.96-1.17-1.67-2.08-2.43-2.94-3.45-3.9-3.44-3.86-8.05-1.33-1.6.88-3.27,1.64-4.97,2.3-2.07.8-3.5,1.88-2.87,4.4.12.47.06.99.08,1.49.13,3.75.13,3.77-3.53,4.25-2.14.28-4.49,1.15-6.37.56-2.49-.78-1.85-3.97-2.74-6.04-.9-2.09-2.11-3.25-4.32-3.43-2.16-.17-4.37-.08-6.45-.56-2.52-.58-3.59.6-4.65,2.56-1,1.86-1.43,4.11-3.35,5.51-1.38-.65-2.74-1.27-4.07-1.94-6.59-3.29-6.42-2.35-3.5-9.02.13-.3.15-.66.31-.95.82-1.43.37-2.52-.87-3.43-2.68-1.96-5.38-3.91-8.04-5.91-.97-.73-1.76-.42-2.74.04-1.95.93-3.26,3.44-5.42,3.3-2.43-.16-3.1-3.18-4.94-4.56-1.01-.76-2.43-1.19-2.9-2.77.33-.48.64-1.08,1.08-1.53.92-.95,1.9-1.87,2.9-2.74,3.16-2.76,3.14-2.73,1.3-6.28-.76-1.47-1.47-2.99-2.03-4.54-1.56-4.38-1.53-4.39-6.38-3.68q-3.71.55-4.27-3.09c-.27-1.81-.49-3.62-.8-5.42-.29-1.67.45-2.33,2.03-2.72,1.92-.48,3.79-1.22,5.6-2.02,1.21-.54,2.27-1.38,2.65-2.81.55-2.11-1.74-8.2-3.7-9.16-4.52-2.21-8.36-5.41-12.46-8.23,1.28-3.76,3.77-6.9,5.49-10.45.78-1.61,2.44-1.9,4.23-2.04,1.57-.13,2.86,1.59,4.66.19,1.57-1.22,1.28-2.99,2.08-4.38.41-.72.74-1.48,1.08-2.24.55-1.23.35-1.96-.98-2.76-1.06-.64-1.9-1.71-3.13-2.26-3.59-1.59-3.58-1.62-3.38-5.37.04-.83-.04-1.72.22-2.48.73-2.06-.28-4.6,1.12-6.27,1.49-1.77,4.03-1.09,6.14-1.36,1.62-.21,2.48-1.13,2.06-2.72-.52-1.98-.35-3.96-.43-5.95-.14-3.14-.34-3.29-3.63-3.04-.66.05-1.31.35-1.96.33-1.97-.07-3.17-.73-3.87-2.99-1.03-3.31-1.82-6.64-2.46-10.03-.33-1.78-.1-3.36,2.26-3.57.64-.06,1.28-.33,1.88-.6,2.68-1.19,3.06-2.01,2.02-4.6-.55-1.38-1.27-2.67-1.64-4.15-.46-1.85-2.31-2.9-4.09-2.54-.8.16-1.56.54-2.31.89-3.52,1.65-4.35,1.41-6.57-1.91-1.01-1.52-1.96-3.08-3.06-4.53-2.57-3.4-2.61-3.76-.09-6.6q2.97-3.36-.16-6.75c-.68-.73-1.34-1.49-2.09-2.15-2.82-2.49-3.32-2.47-6.06.08-2.54,2.36-3.77,2.59-6.45.67-2.26-1.62-4.57-3.2-6.34-5.48-.96-1.24-1.27-2.1-.89-3.74.96-4.12.09-4.24-2.72-5.25-.62-.22-1.15-.72-1.77-.91-5.14-1.53-5.08-2.47-7.17,2.47-.66,1.57-1.66,2.51-3.44,2.14-3.4-.71-6.8-1.47-10.19-2.25-1.43-.33-2.22-1.14-2.32-2.78-.11-1.92.88-4.52-.93-5.58-1.52-.89-3.87-.39-5.85-.49-.5-.03-1-.04-1.5-.02-2.53.09-3.17.58-3.64,3.06-.18.97-.22,1.99-.2,2.99.02,1.4-.58,1.9-1.97,2.28-1.42.38-2.73,1.09-4.28.95-1.14-.11-2.23-.25-3.43.09-4.23,1.19-4.41,1.05-6.54-2.7-1.68-2.96-2.34-3.27-5.57-2.47-.64.16-1.31.37-1.84.73-1.62,1.1-4.33.52-5.08,2.69-.54,1.56.95,3.02,1.52,4.53.61,1.61.38,2.91-1.16,3.87-2.39,1.5-4.72,3.09-7.16,4.51-1.97,1.15-3.99,2.2-5.84-.4-.54-.76-1.58-1.22-2.68-1.04ZM906.96,381.48c33.15.79,61.31-25.4,61.61-60.65.29-34.39-28.28-61.24-61.43-61-32.14.23-60.37,23.38-60.78,60.24-.41,36.56,28.94,62,60.6,61.41ZM608.59,293.92c-22.01-1.04-47.6,16.99-47.87,46.43-.24,25.78,17.86,49.03,47.84,49.32,29.78.29,48.95-22.36,48.48-49.01-.41-23.84-19.68-47.08-48.46-46.74ZM529.02,199.92c-2.52,1.47-5.11,2.84-7.54,4.46-2.38,1.59-2.53,2.71-1.04,5.35.8,1.42,2.38,2.74,2.43,4.15.06,1.62-1.61,3.09-2.57,4.53-2.24,3.35-4.56,7.14-9.81,4.81-1.17-.52-2.21.23-2.72,1.52-.48,1.21-1.17,2.35-1.55,3.59-1.59,5.18-1.55,5.16,3.39,7.59,2.69,1.32,4.99,2.93,4.31,6.55-.18.96-.1,2.02.11,2.98.6,2.75-.92,4.37-2.89,5.8q-4.44,3.21-1.91,8.07c.23.44.5.86.74,1.3,1.88,3.46,2.66,4.04,5.66,1.96,2.77-1.92,4.52-.57,6.37.84,1.57,1.19,2.91,2.74,4.21,4.24,1.6,1.85,2.59,3.59,1.39,6.43-1.77,4.18-.67,5.69,3.73,6.94.96.27,1.93.53,2.9.71,2.86.54,3.15.34,4.08-2.59,1.16-3.67,1.76-4.02,5.58-4.2,2.52-.12,4.71,1.5,7.26,1.11.72-.11.94.71,1.27,1.3.61,1.06.61,2.18.8,3.33.5,2.99,1.43,3.67,4.3,3.35,1.63-.18,3.21-.69,4.82-1.01,4.84-.97,5.45-1.87,4.38-6.62-.14-.63-.5-1.22-.65-1.85-.38-1.64.13-2.92,1.63-3.8,2.42-1.42,4.82-2.83,7.04-4.59,1.06-.84,2.65-1.23,4.32.32,4.97,4.6,5.1,4.47,8.75-1.05.18-.27.25-.62.43-.89q2.3-3.55-.78-6.28c-.24-.21-.6-.29-.85-.49-3.11-2.55-3.25-3.08-1.86-7.16.74-2.17,1.78-4.28,2.19-6.51.33-1.79,1.18-2.16,2.68-2.09.83.04,1.68.13,2.5.04,2.71-.3,4.04-2.11,3.19-4.8-.53-1.67-.31-3.29-.43-4.92-.11-1.6-.72-2.51-2.43-2.41-1,.05-2.02-.06-2.99.11-2.77.48-4.27-1.2-5.29-3.28-.51-1.03-1.34-2.03-1.56-3-.48-2.15-2.68-3.71-2.33-5.86.3-1.83,2.64-2.39,3.79-3.8.21-.26.48-.46.72-.69,1.32-1.32,1.33-2.62-.12-3.83-2.03-1.7-4.07-3.38-6.15-5.03-1.03-.82-2.17-.96-3.11.12-2.78,3.21-5.77,2.86-9.56,1.58-6.01-2.04-6.13-1.69-7-8.2-.04-.33-.01-.67-.09-.99-.43-1.77-1.25-2.99-3.4-2.87-1.99.12-4,.05-5.99-.06-1.78-.1-2.4.75-2.32,2.38.02.5.02,1,.02,1.5-.05,4.33-.63,5.06-4.8,5.92-.65.13-1.34.05-1.98.21-2.19.54-4.58,2.46-6.46,1.49-1.97-1.02-3.14-3.59-4.83-5.7ZM953.33,145.91c-2.4.32-4.95-.64-6.56.8-1.66,1.49-.07,3.73.15,5.64.04.33.05.67.04,1-.02,1.34-.76,2.52-1.95,2.52-3.34,0-5.79,2.2-8.65,3.29-2.62,1-4.17.74-5.98-1.34-3-3.46-3.12-3.35-6.49-.19-.24.23-.51.43-.75.66q-4.82,4.64-.39,9.74c.11.13.21.26.34.37,1.32,1.07.86,2.14.32,3.51-.82,2.07-2.52,3.47-3.56,5.37-1.53,2.79-3.55,4.55-7.29,3.12-2.63-1-3.29-.31-4.5,2.42-.34.76-.62,1.54-.94,2.3-2.36,5.65-1.66,7.78,4.23,9.55,2.86.86,3.62,2.29,3.62,4.84,0,1.66-.03,3.34.27,4.96.2,1.09,1.19,2.1.52,3.28-.7,1.24-1.97,1.69-3.28,2.06-3.52.97-3.36.99-3.54,4.31-.13,2.44.77,4.55,1.55,6.69,1.24,3.42,2.53,3.83,6.09,2.23.59-.26,1.15-.59,1.73-.88,2.71-1.37,3.63-1.32,5.64.64,2.07,2.01,2.91,5.05,5.65,6.59.94.53.51,1.79-.07,2.7-.91,1.4-1.91,2.74-2.68,4.21-1.28,2.43-.81,3.67,1.64,4.65.45.18.98.17,1.45.31,2.19.66,3.96,3.26,6.28,2.46,2.18-.75,2.88-3.48,4.17-5.38.58-.85,1.29-1.48,2.5-1.06,3.15,1.07,6.39,1.77,9.73,2.01,1.52.11,2.39.97,2.34,2.64-.04,1.33.08,2.67.06,4-.03,2.06.91,3.03,3,3.08,2.66.07,5.23-.19,7.83-.87,3.41-.89,3.55-.87,2.77-4-.9-3.6-.74-4.45,2.17-6.16,2.71-1.59,5.64-2.79,8.43-4.23,1.03-.53,1.85-.53,2.64.34.56.62,1.13,1.22,1.71,1.81,3.98,4.05,4.38,4.06,8.91.26.88-.74,1.75-1.5,2.56-2.31,1.24-1.26,1.25-2.45,0-3.86-1.51-1.71-3.32-3.63-3.45-5.81-.13-2.28,1.96-4.16,2.95-6.28.14-.29.39-.54.61-.79,1.12-1.3.89-4.27,3.23-3.82,1.85.35,4.01.15,5.65,1.48.25.2.39.59.66.71.83.36,1.43.23,2.08-.61,1.46-1.87.84-4.15,1.5-6.13,1.7-5.14.24-4.88-3.23-6.64-1.01-.51-2.2-.81-3.33-.94-2.1-.23-2.76-1.4-2.79-3.35-.03-2.14.34-4.29-.21-6.44-1.32-5.17-.93-5.84,4.03-7.45,4.35-1.41,4.85-2.47,3.19-6.85-.17-.46-.39-.91-.61-1.35-1.96-3.93-3.6-4.57-7.82-3.07-.47.17-.92.39-1.37.6-1.76.84-3.18.39-4.34-1.11-.71-.92-1.37-1.89-2.15-2.75-1.56-1.72-3.97-3.14-4.58-5.13-.7-2.29,1.52-4.5,2.57-6.7.73-1.52.55-2.93-1.24-3.72-.6-.26-1.25-.47-1.78-.84-1.74-1.24-3.44-3.18-5.54-2.97-2.62.26-2.96,3.27-4.19,5.16-.64.99-1.26,2-2.72,1.71-3.09-.61-6.17-1.27-9.28-1.77-2.59-.41-3.64-2.05-3.91-4.42-.08-.66.05-1.35-.1-1.99-.53-2.25-1.33-2.81-3.84-2.82-.67,0-1.33,0-1.72,0ZM175.02,350.12c15.72.02,27.97-12.43,28.09-28.29.12-15.72-13.4-27.95-28.54-27.95-14.42,0-27.81,10.84-28.03,28.73-.2,16.02,13.86,27.99,28.49,27.51ZM624,276.6c-.1,4.82.26,5.32,4.02,6.32.47.13,1.01.02,1.49.13,6.29,1.41,5.14,1.9,7.41-4.34.49-1.34.84-2.69,2.31-2.81,3.46-.29,6.55-1.98,10-2.45,1.74-.24,2.85,0,4.02.95,5.51,4.51,4.35,5.08,10.45-.24.5-.44,1.13-.73,1.58-1.21,1.59-1.68,1.72-3.37-.12-4.81-2.48-1.94-2.82-4.08-1.83-6.88.94-2.62,1.89-5.3,2.3-8.03.35-2.33,1.49-3.19,3.52-3.97,5.58-2.15,5.89-2.98,4.41-8.7-.29-1.11-.48-2.26-.93-3.3-.52-1.2-1.1-2.44-2.91-1.51-5.02,2.58-8.33-.03-11.28-3.79-.92-1.17-1.97-2.27-3.13-3.2-1.57-1.26-1.72-2.76-.99-4.41.34-.77.65-1.48.72-2.33.09-1.11,1.5-2.38.55-3.21-1.17-1.02-2.04-2.8-3.92-2.7-1.93.11-3.36-.63-4.95-1.67-1.97-1.29-3.64-.64-4.12,1.58-.68,3.12-2.57,4.46-5.27,5.88-2.17,1.14-4.4,1.31-6.57,1.94-2.34.68-4.42.67-6.31-2.13-2.35-3.49-3.82-3.13-7.01.13-1.39,1.42-2.62,3-4.08,4.33-1.72,1.57-1.83,3-.17,4.64,2.9,2.87,3.19,6.12,1.34,9.67-.22.42-.26.95-.34,1.44-.45,2.75-1.35,4.72-4.59,5.63-1.6.45-4.1,1.06-4.96,2.91-.82,1.74,1.11,3.24,1.42,4.97.29,1.63.64,3.25.94,4.88.46,2.55.92,3.16,3.05,2.35,3.97-1.5,6.31-.28,9.35,2.72,3.67,3.62,7.14,6.45,4.6,11.25ZM845.98,188.46c.21-1.53-.17-2.63-1.83-3.03-.79-.19-1.53-.61-2.3-.88-7.31-2.54-7.57-2.56-10.66,4.35-.95,2.12-1.96,3.2-4.27,3.11-1.49-.06-2.97.11-4.39.74-3.25,1.46-5.8,1.87-7.97-2.27-1.86-3.55-3.37-3.27-6.1-.36-.91.96-1.77,1.97-2.66,2.95-3.84,4.22-3.87,4.89-.12,9.03.92,1.02,2.07,2.01,1.2,3.41-1.87,3.01-2.25,6.43-3.01,9.75-.35,1.54-1.2,2.38-2.92,2.9-7.16,2.17-5.6.54-4.54,8,.21,1.45,1.07,2.8,1.39,4.25.35,1.55,1.34,1.71,2.58,1.55.81-.1,1.68-.16,2.41-.49,2.09-.93,3.62-.34,5.41,1.03,2.39,1.82,4.35,4.07,6.63,5.97,1.34,1.12,1.53,2.52,1.04,4.06-.3.94-.81,1.82-1.18,2.74-1.34,3.33-.58,4.8,2.96,5.64.48.11,1,.02,1.49.09,2.24.34,4.63,2.02,6.63,1.07,2.45-1.16,1.9-4.32,2.54-6.66.29-1.07.66-2.38,2.27-2.09,3.42.62,6.56-.73,9.7-1.57,2.31-.62,3.81-.15,5.26,1.45.33.37.69.72,1.06,1.06,2.57,2.34,3.09,2.09,6.44.28,1.54-.83,2.19-2.26,3.52-3.19,2.49-1.73,2.63-3.08.26-4.55-3.97-2.46-3.63-5.4-2.03-8.9.48-1.05.96-2.15,1.12-3.28.64-4.46,2.97-7.33,7.43-8.36.32-.07.62-.22.92-.33,1.58-.59,1.86-1.83,1.48-3.24-.51-1.88-1.16-3.73-1.76-5.59-.95-2.96-1.53-3.35-4.7-3-.65.07-1.37.11-1.92.4-2.2,1.16-3.79.08-5.23-1.37-2.33-2.35-4.45-4.92-6.94-7.07-1-.86-1.02-1.43-.75-2.44.46-1.75,1.75-3.26,1.54-5.17ZM195.33,220.44c-3.57,3.24-7.52,4.29-11.96,1.52-.55-.34-1.18-.6-1.81-.75-4.15-.99-7.49-2.63-6.82-7.84.05-.42-.53-.89-.55-1.35-.11-2.55-1.76-2.95-3.79-2.74-1.81.18-3.6.52-5.41.72-3.91.43-3.92.41-3.99,4.59-.02,1.5-.07,3,.02,4.49.08,1.34-.54,2.65-1.55,2.88-2.65.59-3.98,2.77-5.78,4.3-1.97,1.68-3.53,2.35-6.18,1.11-2.91-1.37-5.5-.05-6.96,2.84-.96,1.9-1.77,3.89-2.4,5.92-.34,1.07-.42,2.58.95,3.03,1.63.54,2.72,2.13,4.48,2.21,1.94.09,2.53,1.13,2.53,2.9,0,2.15-.26,4.34.39,6.45,1.05,3.41-.06,6.08-2.5,8.53-2.94,2.96-3,4.61-.85,8.05,2.83,4.53,5.13,5.08,9.54,2.26.55-.35,1.02-.85,1.53-1.27.57-.46,1.3-.54,1.88-.28,3.6,1.64,7.62,2.05,11.12,3.98,1.43.79,2.19,1.92,2.52,3.48.3,1.42-.34,3.26,1.04,4.18,1.43.96,3.24.22,4.88.26.83.02,1.67-.03,2.49-.15,3.59-.49,3.86-.79,3.88-4.32,0-1.16-.06-2.33-.04-3.49.01-.81-.01-1.61,1.01-2.01,3.5-1.37,5.82-4.27,8.29-6.87,1.47-1.55,2.43-1.61,4.14-.41,1.43,1,3.19,2.53,4.87,2.03,2.01-.6,2.42-2.88,2.71-4.9.06-.44.55-.8.8-1.22,2.25-3.87,1.62-5.98-2.52-7.52-1.94-.72-3.07-1.84-3.31-3.84-.14-1.15-.48-2.26-.7-3.37-.86-4.45-1.54-8.97,3.18-12,.27-.18.5-.44.72-.68,1.01-1.13,1.29-2.46.28-3.62-2.04-2.34-3.1-5.51-6.14-7.14ZM400.03,225.65c5.18-.66,8.7.98,10.14,5.94.13.45.55.82.86,1.21,1.41,1.78,1.33,3.64.41,5.61-.7,1.5-1.42,2.99-1.39,4.74.03,1.46.24,2.53,2.02,2.85,2.11.38,4.21.93,6.25,1.63,1.8.61,2.76-.38,3.87-1.43.69-.65.6-1.47.87-2.22.86-2.33,2.07-4.44,3.77-6.35,1.9-2.13,5.27-.94,6.88-3.4,1.55.44,3.09.92,4.64,1.32,3.24.84,4.25.38,5.34-2.64.56-1.55.91-3.19,1.33-4.79,1.18-4.5,1.19-4.61-3.27-5.48-2.55-.5-4.35-1.75-5.57-3.99-.47-.86-1.02-1.7-1.62-2.48-2.12-2.78-1.94-5.96-1.19-9,1.19-4.79,1.35-4.76-3.19-6.09-.63-.18-1.32-.15-1.95-.31-7.22-1.89-6.75-2.96-8.8,4.6-1,3.69-3.17,5.09-6.01,6.38-1.4.64-2.95.22-4.44.25-2.32.04-4.63,0-6.84.98-1.39.62-2.11,1.47-2.09,2.99.02,3.15,0,6.3,0,9.7ZM873.04,220.14c-2.29.11-4.7-.87-5.43,1.84-.77,2.83-1.18,5.75-1.69,8.64-.24,1.37.45,2.21,1.76,2.55.96.25,1.93.46,2.86.77,4.53,1.52,7.19,4.81,8.45,9.28.26.91.24,1.99.05,2.93-1.05,5.11-1.08,5.1,3.54,6.94.46.18.9.45,1.37.61,6.32,2.09,6.63,1.87,8.05-4.89.52-2.46,1.63-4.05,4.38-5.22,3.25-1.39,6.15-2.56,9.62-1.54.15.04.33-.01.5-.02,3.54-.18,5.17-1.69,5.66-5.21.18-1.31.5-2.61.6-3.93.17-2.22-.81-3.97-2.88-3.73-4.1.49-5.6-2.06-7.2-4.87-.49-.85-.99-1.76-1.71-2.41-2.51-2.29-2.5-4.64-.81-7.48,1.5-2.52,1.21-3.18-1.52-4.52-2.35-1.16-4.82-2.09-7.28-3.03-2.51-.96-3.77-.4-4.24,2.14-.27,1.45-.42,2.89-.91,4.31-.41,1.19-.97,2.37-2.11,2.55-2.04.34-3.15,1.64-4.28,3.09-1.08,1.39-2.29,2.32-4.25,1.5-.88-.37-1.96-.25-2.52-.31Z"/><path class="cls-2" d="M379.79,306.02c.03,1.42,1.06,1.96,2.17,2.4,4.47,1.77,8.99,3.35,13.83,3.75-.07.48.03,1.2-.24,1.39-2.61,1.82-1.35,4.54-1.6,6.86-.19,1.72.5,2.96,2.15,4.02,1.33.86,1.75,2.7,1.82,4.45.05,1.26-.08,2.53,1.13,3.61,1.57,1.41.29,3.8,1.52,5.55,1.48,2.1-1.4,3.33-1.38,5.22,0,.21-.56.38-.69.65-.66,1.3-.68,2.86.44,3.62,1.02.69,1.25,1.79,2.2,2.53,2.38,1.86,2.25,2.04,5.14.53,1.84-.96,3.12-.73,4.68.95,1.59,1.72,3.25,3.45,5.11,4.99,3.22,2.65,3.2,2.89,1.59,6.99-.59,1.51-1.17,3.11-.16,4.18,1.72,1.84,3.88,3.33,6.33,4.15.49.16,1.65-.21,1.75-.55.39-1.38,2.34-1.25,2.47-2.88.13-1.72,1.45-1.6,2.59-1.14,3.68,1.48,7.21,3.46,11.01,4.42,2.78.71,3.33,2.24,3.51,4.48.08.99.03,2-.03,2.99-.1,1.81.54,2.74,2.54,2.78,2.61.05,5.24-.07,7.85.75.85-2.25,1.99-4.19,2.23-6.24.27-2.24,1.25-2.68,3.18-2.72,2.29-.04,4.62.35,6.86-.61,5.05-2.19,6.4-1.62,8.37,3.35,1.35,3.4,2.59,3.8,6.05,2.02.58-.29,1.27-.35,1.88-.59,3.76-1.49,4.77-3.57,3.44-7.08-.31-.82-1.86-1.24-.94-2.44.67-.88,1.46-2.03,2.4-2.26,2.18-.55,3.44-2.4,5.21-3.22,2.14-1,3.68-3.17,6.31-3.22,2.79-.05,4.13,2.21,6.04,3.58.21.15.56.09.85.13,1.26-1.88,3.29-2.96,4.69-4.77,2.71-3.48,2.85-3.98-.34-7.11-2.25-2.2-2.48-4.35-.87-7.09,1.04-1.77,2.96-2.98,3.24-5.24.05-.4.54-1.09.81-1.08,3.54.14,4.72-3.62,7.72-4.57,2.18-.69,1.9-4.23-.22-5.42-.81-.46-1.65-.51-2.28-1.58-2.48-4.16-1.89-8.61-1.58-13.02.11-1.67,2.35-3.3,4.06-3.45q5.86-.55,5.69-6.26c-.02-.67-.08-1.33-.09-1.99,0-1.45-.75-1.95-2.16-2.07-1.88-.16-3.89.8-5.63-.59,2.66.34,5.26-.12,8.28-1.18.09,4.12.14,7.73.25,11.33.05,1.53-.95,1.95-2.14,2.26-1.71.43-3.91-.54-5.11,1.2-1.11,1.61.03,3.57-.09,5.37-.05.83.04,1.66.08,2.5q.25,4.61,5.1,4.82c.83.04,1.66.14,2.47.29,3.39.66,4.08,1.42,3.42,4.69-.54,2.64-.71,5.29-.77,7.94-.04,1.92-.56,3.07-2.58,3.61-2.04.54-4.67.36-5.87,2.24-1.23,1.92.59,4.14.62,6.29,0,.81.25,1.64.48,2.43.3,1.03.84,1.77,2.14,1.52.98-.19,1.98-.24,2.97-.35,1.34-.15,2.23.42,2.68,1.7,1.21,3.45,2.41,6.89,3.63,10.34.4,1.12-.01,1.93-.89,2.59-.27.2-.53.4-.78.62-1.48,1.25-4.2,1.53-4.33,3.67-.1,1.62,1.27,3.33,1.98,4.99.71,1.66,1.17,3.45,2.39,4.74.29.05.46.13.6.1,2.38-.54,4.57-3.02,6.88-2.04,2.19.93,3.03,3.82,4.54,5.78.51.66,1.02,1.32,1.49,2.01q1.79,2.64-.16,5.17c-.51.66-1.08,1.27-1.63,1.89-.9,1.03-.99,2.01.03,3.05,1.95,2.01,3.5,4.42,5.73,6.03.49-.15.83-.19,1.1-.34,1.98-1.18,3.28-4.08,5.61-3.79,1.91.23,3.63,2.17,5.38,3.43,1.88,1.35,4.61,2,5.5,4.11.89,2.12-.56,4.46-1.22,6.66-.51,1.68-.31,2.9,1.72,3.33,1.29.28,2.51.87,3.78,1.27,1.57.49,3.23,1.45,4.73,1.26,1.83-.24,1.77-2.6,2.57-3.99.78-1.35,1.7-1.96,3.24-1.57,3.22.81,6.43,1.67,9.68,2.34,1.88.39,2.23,1.48,2.32,3.17.33,5.89.39,5.88,6.38,6.09.83.03,1.66.09,2.49.16,1.21.11,1.86-.39,1.98-1.63.18-1.97.22-4.24,1.75-5.52,1.56-1.31,3.87-.41,5.83-.72.33-.05.66-.05,1-.08q6.95-.52,8.5,6.35c.11.47.34.91.59,1.58,3.14-.35,5.93-2.09,9.07-2.26.96-.05,1.33-.85,1.3-1.78,0-.33-.06-.67-.03-1,.16-2.29-1.08-5.03.49-6.76,1.31-1.45,3.81-1.82,5.79-2.66.31-.13.62-.25.92-.37,4.93-2.04,5.01-2.12,8.59,1.65,1.37,1.44,2.34,1.48,3.7.18.96-.92,2.07-1.68,3.13-2.48.92-.7,1.88-1.35,2.78-2,.02-.39.17-.77.04-1-3.54-6.38-3.6-5.01,1.43-9.75,1.33-1.25,2.52-2.67,3.61-4.14,1.18-1.6,2.35-1.97,4.24-1.08,1.86.87,3.33,3.61,5.57,2.4,1.59-.86,2.48-3.03,3.68-4.61.4-.53.74-1.12,1.19-1.6,1.41-1.53,1.28-2.74-.3-4.2-1.42-1.31-3.8-2.26-3.78-4.35.02-1.67,1.34-3.32,2.08-4.98.75-1.67,1.6-3.3,2.22-5.01.74-2.04,2.14-2.34,3.97-1.85,1.9.51,3.81,1.03,5.94,1.61.83-3.08,1.44-5.97,2.44-8.76.93-2.57-.07-3.97-2.82-4.8-1.55-.46-3.63.23-4.57-1.44-.94-1.66-.12-3.57.1-5.37.29-2.31.48-4.64.64-6.96.11-1.62.87-2.43,2.52-2.38.66.02,1.34.02,2-.08,2.88-.43,3.29-.91,3.27-3.85,0-1-.04-2-.1-3q-.31-5.17-5.49-5.13c-.83,0-1.67,0-2.5.01-1.13.02-1.91-.35-2.11-1.59-.46-2.79-.96-5.57-1.44-8.35-.14-.78.35-1.24.9-1.62.26-.19.6-.33.92-.37,4.23-.5,7.28-2.75,9.57-6.26.52-.8,1.45-1.34,2.18-2-.04,1.14,0,2.21-1.26,2.95-3.3,1.93-3.01,5.12-2.57,8.24.51,3.68,2.59,4.72,5.76,2.71.91-.58,1.77-.71,2.69-.94,3.74-.94,6.63,1.25,9.34,3.08,3.37,2.27,6.69,5.11,2.75,9.74-.21.24,0,.94.15,1.37,1.71,4.51,4.01,6.27,7.71,6.02,2.58-.18,5.41.54,5.95-3.39.12-.87,1.41-1.78,2.37-2.27.92-.47,1.1,1.13,1.87,1.24,3.02.4,5.37,3.08,8.73,2.43,1.9-.37,2.84.84,2.6,2.62-.34,2.54,1.64,4.22,2.28,6.41.36,1.22,2.09,3.4,4.32,1.22.38-.37,1.29-.35,1.92-.27,2.31.28,3.53-.96,4.33-2.88-.01,2.32,0,4.65-.04,6.97-.03,1.88-.89,3.16-2.78,3.6-2.79.65-5.26,2.03-7.73,3.38-3.73,2.05-3.67,2.09-2.28,6.1.43,1.24.75,2.55.94,3.85.24,1.71,1.25,2.2,2.78,2.1.66-.04,1.35,0,1.99-.14,1.91-.41,3.14.15,3.81,2.11.81,2.35,1.71,4.69,2.81,6.91.81,1.64.49,2.84-.7,4.01-1.62,1.61-3.23,3.23-5,4.99,2.7,2.43,5.22,4.58,7.58,6.88,1.43,1.39,2.58,1.14,3.82-.1.47-.47,1.07-.85,1.42-1.4,1.82-2.88,3.94-3.48,7.12-1.83,1.99,1.03,4.84.57,6.63,1.77,2.08,1.4,1.55,4.54,2.49,6.81.33.79.63,1.61,1.69,1.46,3.09-.41,6.17-.87,9.64-1.37-.88-2.63-1.23-5.06-1.31-7.52-.04-1.2.11-2.24,1.38-2.92,2.93-1.57,5.8-3.24,8.66-4.94,1.34-.8,2.5-.41,3.77.11,1.95.79,3.84,3.21,5.77,2.11,1.64-.93,2.37-3.46,3.49-5.29.43-.71.84-1.43,1.23-2.17,1.43-2.69,1.37-2.84-1.43-3.71q-5.63-1.76-5.57-7.65c0-.67-.04-1.34.03-2,.23-2.29-.69-4.82.66-6.82,1.16-1.72,3.62-1.43,5.4-2.29.15-.07.32-.11.48-.15,1.36-.36,1.87-1.24,1.63-2.61-.2-1.15-.27-2.32-.55-3.44-.53-2.17-1.62-3.85-3.7-5.02-2.02-1.14-3.45-.11-5.09.64-1.37.63-2.82,1.3-4.21.17-2.18-1.78-4.67-3.37-6.3-5.58-1.29-1.75.14-4.15.51-6.26.11-.65.1-1.33.22-1.98.26-1.46-.56-2.34-1.78-2.52-3.12-.45-5.83-2.43-9.07-2.36-.12-1.63,1.22-2.82,2.23-2.77,3.12.16,5.19-2.53,8.24-2.52,1.82,0,3.95-2.32,4.13-4.07.29-2.91.71-5.88-.65-8.68,6.43,1.59,12.83,3.3,19.3,4.72,2.05.45,2.72,1.33,2.79,3.32.13,3.32.45,6.64.81,9.94.2,1.81-.44,2.61-2.21,3.21-2.29.78-5.67.67-6.48,2.98-.63,1.8.89,4.36,1.47,6.58.25.95-.12,2.01.86,3.27,1.49-.19,3.24-.4,4.99-.63,3.18-.43,3.19-.44,4.25,2.56,1.1,3.12,2,6.33,3.33,9.35.84,1.9.55,3.13-1,4.29-1.32,1-2.61,2.04-4.15,3.24,1.04,2.64,3.08,4.62,4.54,6.96.9,1.43,2.02,1.57,3.36.67.42-.28.85-.53,1.26-.8q3.9-2.54,6.65.85c2,2.45,4.01,4.88,6.06,7.29,1.03,1.21,1.15,2.27-.04,3.47-1.28,1.29-2.45,2.69-3.6,3.97.43,1.52,1.42,2.46,2.28,3.46,1.52,1.75,2.74,4.45,4.86,4.8,2.31.39,3.7-2.42,5.3-4.02,1.45-1.44,2.58-1.6,4.23-.27,2.46,1.98,5.02,3.86,7.71,5.5,1.9,1.15,2.59,2.35,1.79,4.47-.63,1.67-1.02,3.44-1.55,5.32,3.16,1.46,6.14,2.84,9.29,4.29,1.11-1.82,2.17-3.49,3.15-5.19.97-1.67,2.23-2.26,4.15-1.61,2.83.96,5.71,1.76,8.69,2.17,1.83.25,3.09,1.15,2.92,3.29-.04.49.07.99.11,1.49.37,5.55.37,5.59,5.72,5.68,1.8.03,3.87.86,5.34-.23,1.63-1.21.49-3.42.77-5.18.42-2.62.7-2.97,3.46-3.14,3.15-.19,6.32-.07,9.42-.89,1.52-.4,2.38.34,3.07,1.78,1.01,2.09.89,4.58,2.47,6.64,3.38-.6,6.78-1.19,10.18-1.83.29-.05.53-.36.97-.68-.25-1.51-.43-3.13-.79-4.71-.5-2.28.08-3.77,2.43-4.68,2.16-.83,4.26-1.91,6.2-3.17,2.1-1.35,3.72-.94,5.32.68.23.24.46.49.72.69,1.44,1.07,2.25,3.7,4.07,3.32,2.69-.57,5.2-2.1,7.71-3.38.83-.43.69-1.49.24-2.23-3.26-5.34-1.32-8.93,3.74-11.61,1.86-.99,2.76-3.77,5.07-3.63,1.94.12,3.38,1.98,5.06,3.06,2.1,1.34,2.44,1.28,4.07-.8,1.84-2.35,3.6-4.77,5.36-7.12-.21-.4-.31-.74-.53-.97-1.46-1.57-4.01-2.34-4.53-4.48-.55-2.29,1.95-3.63,2.84-5.53.14-.3.27-.61.45-.89,1.28-1.93,1.52-4.85,3.57-5.85,2.16-1.06,4.38.89,6.53,1.64,1.3.46,1.93-.1,2.31-1.09.53-1.39.97-2.82,1.32-4.27.43-1.78,2.38-3.06,2.04-4.94-.39-2.16-2.87-1.95-4.32-2.94-1.65-1.12-2.06-2.49-1.54-4.29.88-3.03,1.86-6.03,2.62-9.09.4-1.62,1.35-1.99,2.82-2.17,7.47-.91,7.35-.95,7.46-8.06.04-2.26-1.16-2.85-2.83-3.35-1.7-.51-3.91.3-5.07-1.48-1.06-1.62.06-3.56-.18-5.35-.04-.33.07-.68-.01-1-1.71-6.52,1.87-9.72,7.26-12.07,3.17-1.38,6.36-2.92,8.69-5.66,2.09,3.13,4.21,6.25,6.28,9.4,1.56,2.38,3.13,4.71,5.88,5.89v31c-1.25.04-2.25-.61-3.14-1.34-1.92-1.58-3.79-3.23-5.66-4.87-1.36-1.2-2.49-1.4-3.65.36-1.09,1.65-2.41,3.17-3.68,4.7-2.47,2.99-2.69,3.96.16,6.73,2.39,2.31,3.07,4.95,3.29,8.02.28,3.8-.43,7.26-2.88,10.28-.61.75-1.34,1.49-1.3,2.64,2.64,1.94,5.34,3.84,7.94,5.88,1.18.93,2.01.75,3.01-.19,1.91-1.8,3.43-4.05,5.92-5.19v232H0C0,526.67,0,449.33,0,372c2.94-.3,5.89-.6,8.83-.92,1.41-.15,2.49.26,3.55,1.29,4.1,3.97,4.14,3.93,8.02-.32.67-.73,1.35-1.46,1.99-2.22q2.38-2.79-.37-4.99c-.65-.52-1.34-.98-2.02-1.44-2.06-1.4-3.19-3.16-2.88-5.83.18-1.62.06-3.36-.7-4.87-.74-1.47-.17-2.47.79-3.54,1.76-1.95,3.54-3.9,4.49-6.46-2.25-2.38-4.35-4.71-6.85-6.62.7-.26,1.04-.79,1.03-1.5-.01-2.57,1.65-2.89,3.64-2.68,1.14.12,2.36.15,3.39.58,4.15,1.71,8.33,3.26,12.87,3.45,1.68.07,2.4.73,2.29,2.4-.06.82.02,1.65.03,2.48q.06,5.14,5.17,5.15c.99,0,1.98-.08,2.97-.13.68-.04,1.46-.23,1.5-.96.14-2.16,2.38-3.54,2.04-5.86-.36-2.41.81-3.31,3.13-3.02.65.08,1.32.03,1.98.04.57,2.27,1.21,4.58,2.56,6.45,1.4,1.96.75,3.33-.52,4.82-.65.76-1.42,1.46-1.89,2.32-2.49,4.56-5.95,6.93-11.35,5.47-1.32-.36-2.25.26-2.42,1.74-.31,2.81-.67,5.62-.96,8.43-.16,1.56.59,2.79,2.15,2.78,5.23-.05,6.67,2.96,6.74,7.54.03,1.61.64,3.29,1.31,4.78.87,1.92.17,3.09-1.22,4.33-1.59,1.42-4.14,2.51-4.2,4.67-.06,2.07,2.29,3.5,3.5,5.26.75,1.09,1.73,2.02,2.58,3.05.88,1.07,1.92,1.42,2.99.44,3.66-3.38,7.11-2.32,10.61.27.93.69,1.99,1.25,3.07,1.66,3.17,1.19,4.58,3.09,4.19,6.75-.44,4.14.05,4.35,4.26,4.95.66.09,1.33.13,1.99.2q5.18.58,5.92-4.47c.43-2.94.56-3.04,3.67-3.56,1.47-.25,2.95-.52,4.39-.92,2.23-.62,4.48-2.04,6.62-1.88,2.58.2,3.48,3.27,5.18,5.04.81.84,1.65,1.09,2.61.31,2.43-2,4.84-4.02,7.2-5.98-.4-1.94-1.57-3.17-2.48-4.54-1.05-1.58-1.02-2.98.25-4.5,1.38-1.66,2.87-3.36,3.72-5.3,1.85-4.24,4.64-5.92,9.29-5.01,2.3.45,2.88-.29,3.11-2.75.18-1.98.03-4,.12-5.99.09-2.13-.46-3.21-2.96-3.53-3.95-.51-4.31-1.22-5.01-4.97-.54-2.94-.89-5.94-2.37-8.61-1.02-1.85-.46-3.13,1.18-4.21.97-.64,1.92-1.33,2.82-2.07,2.29-1.88,2.3-2.2.35-4.24-.91-.96-1.9-1.87-2.66-2.95-2.97-4.24-3.04-4.38-7.05-.86-1.79,1.57-3.04,1.51-4.7.07-2.54-2.19-5.34-4.04-8.61-4.89-1.84-.48-1.88-1.59-1.67-2.97.24-1.64.58-3.27.85-4.91.22-1.35-.18-2.11-1.72-2.39-2.76-.51-5.61-.77-8.22-1.96-.14-2.56,2.45-1.57,3.46-2.66,4.98-5.38,11.33-9.48,14.82-16.3.68-1.32,1.74-3.12,3.71-3.5,4.1,2.82,7.94,6.02,12.46,8.23,1.96.96,4.25,7.06,3.7,9.16-.37,1.43-1.44,2.27-2.65,2.81-1.81.81-3.68,1.55-5.6,2.02-1.59.39-2.32,1.05-2.03,2.72.31,1.8.53,3.62.8,5.42q.55,3.64,4.27,3.09c4.85-.71,4.82-.7,6.38,3.68.56,1.56,1.27,3.07,2.03,4.54,1.84,3.55,1.86,3.52-1.3,6.28-1,.87-1.97,1.79-2.9,2.74-.44.46-.75,1.05-1.08,1.53.47,1.58,1.89,2.01,2.9,2.77,1.84,1.38,2.51,4.4,4.94,4.56,2.16.14,3.46-2.36,5.42-3.3.98-.47,1.77-.77,2.74-.04,2.66,1.99,5.35,3.94,8.04,5.91,1.24.91,1.69,2,.87,3.43-.16.28-.18.64-.31.95-2.92,6.67-3.09,5.73,3.5,9.02,1.33.67,2.69,1.28,4.07,1.94,1.92-1.41,2.35-3.66,3.35-5.51,1.05-1.96,2.12-3.15,4.65-2.56,2.08.48,4.3.38,6.45.56,2.2.18,3.42,1.34,4.32,3.43.89,2.06.25,5.26,2.74,6.04,1.88.59,4.24-.28,6.37-.56,3.66-.48,3.66-.51,3.53-4.25-.02-.5.04-1.02-.08-1.49-.63-2.52.79-3.61,2.87-4.4,1.7-.65,3.37-1.42,4.97-2.3,4.62-2.53,4.6-2.57,8.05,1.33.76.86,1.47,1.77,2.43,2.94,2.49-1.82,4.86-3.56,7.23-5.3,1.23-.91,1.05-1.89.21-2.97-1.02-1.31-1.98-2.67-2.95-4.02-.91-1.26-.93-2.41.35-3.48,2.97-2.49,4.95-5.78,6.99-9.15,2.48.39,4.26,2.01,6.38,2.8,1.44.54,2.43.41,3.11-1.29.98-2.46,2.25-4.81,3.43-7.19.54-1.09.35-1.91-.74-2.47-1.92-.98-3.79-2.1-5.8-2.84-1.83-.67-2.29-1.71-1.75-3.43.1-.32.19-.64.29-.96.86-3.02.59-6.53,2.46-9.03,1.82-2.43,5.37-2.32,8.08-3.53,4.08-1.84,8.25-3.48,12.4-5.16.81-.33,1.43-.8,1.9-1.52,1.12.92,2.24,1.82,3.34,2.75.64.54,1.38,1.19,1.12,2.05-1.07,3.67,2.01,5.81,3.06,8.7q-4.49,2.1-7.49-1.35c-.22-.25-.42-.52-.65-.76-2.56-2.71-3.93-2.73-6.56.11-1.24,1.34-2.26,2.88-3.41,4.31-2.65,3.31-4.31,4.45.99,7.59,2.51,1.49,2.66,2.15,1.69,4.97-.72,2.08-1.35,4.17-1.15,6.33.25,2.68-1.11,3.86-3.32,4.83-7.4,3.24-6.26,1.99-4.47,9.85.95,4.14,1.06,4.1,5.52,3.22.98-.19,1.98-.25,2.98-.36.89-.1,1.74.16,2.2.9,2.05,3.36,5.33,5.47,8.14,8.04,1.46,1.33,2.15,2.69,1.73,4.81-1.12,5.64-.66,4.62,4.29,6.26,1.41.47,2.91.69,4.39.95,1.55.28,2.6-.4,3.01-1.91.43-1.61.8-3.23,1.12-4.86.36-1.8,1.16-2.85,3.2-3.2,2.93-.5,5.87-1.16,8.51-2.7,1.3-.75,2.5-.51,3.66.45,1.91,1.59,3.88,3.1,6.01,4.78,2.94-3.08,5.75-6.02,8.67-9.08-1.79-1.5-3.2-2.64-4.57-3.84-.75-.66-1.58-1.37-1.45-2.49.47-3.97,1.18-7.92,2.65-11.63,1-2.53,3.98-2.74,6.09-3.96.43-.25.93-.35,1.39-.55,1.29-.57,1.53-1.34,1.02-2.76-.94-2.63-2.46-5.14-2.17-8.11,3.88,1.75,7.94,2.33,12.19,2.11,2.14-.11,2.81-1.17,2.93-3.01,1.44,1.61,2.87,3.21,4.52,5.05-.85,1.87-1.94,4.09-2.88,6.37-.82,1.98-.94,4.62-2.34,5.89-1.66,1.51-4.44.29-6.73.5-2.54.23-2.85.44-2.65,3.11.23,2.95.7,5.88,1.05,8.73,1.46.73,2.81.38,4.09.34,3.34-.1,3.6-.08,4.52,3,.86,2.86,1.37,5.83,2.27,8.67.56,1.75.14,2.79-1.29,3.79-1.75,1.21-3.79,2.1-5.09,3.95.57,1.86,1.84,3.22,3.02,4.57,1.31,1.5,1.45,4.21,3.38,4.69,1.92.49,3.42-1.68,5.2-2.52,1.33-.62,2.39-.85,3.64.16,2.71,2.21,5.5,4.31,8.25,6.47,1.16.91,1.64,2.01,1,3.48-.39.91-.64,1.89-.95,2.83q-1.45,4.37,2.9,5.78c.16.05.32.1.48.13,2.27.37,4.5,2.24,6.64,1.41,1.86-.73,1.61-3.45,2.35-5.27.83-2.05,2.12-2.71,4.27-2.43,3.13.4,6.29.66,9.45.83,1.57.09,2.28.84,2.9,2.21.8,1.78.86,4.24,2.74,5.13,1.85.88,3.84-.66,5.81-.83.82-.07,1.63-.31,2.44-.51,1.33-.32,1.97-1.08,1.67-2.53-.41-1.95-.72-3.93-1.12-5.88-.24-1.13.07-1.93,1.11-2.45,3.29-1.66,6.28-3.76,9.04-6.19.87-.76,1.81-.73,2.7,0,1.29,1.05,2.62,2.06,3.84,3.19,1.34,1.24,2.43,1.48,3.67-.18,1.77-2.35,3.69-4.59,6.01-7.43-1.97-1.71-3.89-3.3-5.72-5-1.01-.93-1.53-1.94-.78-3.51,1.2-2.54,2.13-5.23,2.99-7.92.66-2.06,1.9-2.87,4.04-2.92,1.95-.04,4.41.86,5.74-.67,1.41-1.61.56-4.15.77-6.27.07-.66.01-1.33.06-2,.15-1.82-.42-2.78-2.5-2.72-2.11.06-4.72,1-6.22-.52-1.4-1.42-1.26-4-1.68-6.1-.46-2.28-1.17-4.5-1.83-6.74-.43-1.47-.24-2.61,1.27-3.3.6-.28,1.19-.59,1.76-.93,2.22-1.33,2.78-2.59,1.83-4.81-1.02-2.41-2.24-4.73-3.37-7.07-.74.16-1.27.17-1.7.39-2.52,1.27-5.03,3.66-7.5,3.6-2.83-.07-4.21-3.96-6.75-5.5-3.83-2.32-5.19-5.12-2.62-9.22.86-1.37.4-2.42-1.23-3.07-2.31-.92-4.53-2.05-6.79-3.1-.46-3.04,1.57-4.53,3.58-6.22,1.62-1.36,2.89-1.92,4.52-.19,1.02,1.09,2.47.57,3.73.76ZM698.12,345.33c.5,1.74,1.58,2.4,2.17,3.38,4.41,7.2,4.7,13.29-1.53,18.2-.65.51-1.21,1.15-1.87,1.65-1.43,1.07-1.25,2.12-.14,3.32,2.47,2.65,4.89,5.35,7.42,8.13.68-.77,1.16-1.23,1.55-1.75,4.93-6.59,15.3-5.85,19.34,1.43.32.58.65,1.17,1.05,1.7.87,1.15,1.88,1.25,2.94.24,2.76-2.62,5.5-5.25,8.21-7.83-.72-2.09-2.6-2.72-3.92-3.92-.99-.9-2.26-1.73-2.16-3.18.17-2.47.64-4.92.32-7.42-.09-.69.59-1.16,1.2-1.44.76-.34,1.55-.58,2.32-.89,4.52-1.81,5.07-3.99,2-7.89-.82-1.05-1.76-2-2.53-3.08-2.6-3.65-2.58-3.67-6.37-1.14-.83.55-1.56,1.24-2.39,1.8-.83.56-1.82,1.21-2.78.81-4.97-2.09-11.47-1.38-14.18-7.67-.08-.19-.57-.21-1.33-.46-1.88,3.51-5.96,4.08-9.34,6.04Z"/><path class="cls-1" d="M110.09,301.41c-1.97.38-3.03,2.18-3.71,3.5-3.5,6.82-9.85,10.92-14.82,16.3-1.01,1.09-3.61.1-3.46,2.66-1.11.5-1.9,1.3-2.21,2.51-2.59,0-1.22,2.64-2.45,3.68-1.28,1.09-2.93,1.99-3.31,3.89-1.76.36-3.62.49-5.27,1.14-3.72,1.47-6.53,1.22-8.68-2.71-1.22-2.22-3.07-1.99-5.68-.9-2.38,1-3.72,3.03-5.59,4.52-.66,0-1.33.05-1.98-.04-2.32-.3-3.49.6-3.13,3.02.34,2.32-1.9,3.7-2.04,5.86-.05.74-.82.92-1.5.96-.99.05-1.98.13-2.97.13q-5.11,0-5.17-5.15c-.01-.83-.09-1.66-.03-2.48.11-1.67-.61-2.33-2.29-2.4-4.53-.2-8.72-1.74-12.87-3.45-1.04-.43-2.25-.46-3.39-.58-1.99-.21-3.65.11-3.64,2.68,0,.71-.33,1.25-1.03,1.5-.96.01-1.92.03-2.88.04-.83-.33-2.4-.48-1.28-1.8,1.76-2.06,1.55-4.31-.15-5.6C7.24,326.22,4.14,323.25,0,322,0,313,0,304,0,295c.4.28.91.47,1.18.85,4.64,6.57,10.82,11.25,17.72,15.28,2.41,1.41,4.97,2.32,7.38,3.64,4.72,2.58,9.89,4.08,15.19,4.25,6.12.2,12.52,2.02,18.31-1.82.47-.31,1.32-.24,1.95-.11,1.39.3,2.54-.41,3.79-.63,4.88-.86,8.6-4.01,12.82-6.12,7-3.5,12.82-8.48,17.46-14.79.76-1.04.96-2.56,1.85-3.44,3.93-3.89,5.26-9.04,7.15-13.93.67-1.74-.25-3.62.81-5.33,1.26-2.03,1.31-4.4,1.48-6.73.53-7.49-.26-14.79-2.78-21.91-3.09-8.75-7.71-16.58-14-23.36-2.24-2.42-4.34-4.99-7.01-7.04-4.08-3.12-9.2-4.28-13.31-7.32-.38-.28-.93-.32-1.39-.5-7.42-2.88-15.16-3.43-23.03-3.21-12.11.34-22.91,4.17-32.47,11.66-2.46,1.93-5.17,3.7-6.8,6.3C4.53,223.53,2.5,225.93,0,228v-29c1.1-.18,2.14.28,2.68,1.04,1.85,2.61,3.87,1.55,5.84.4,2.43-1.42,4.77-3.01,7.16-4.51,1.53-.96,1.77-2.26,1.16-3.87-.57-1.51-2.06-2.97-1.52-4.53.75-2.17,3.46-1.59,5.08-2.69.54-.36,1.2-.57,1.84-.73,3.24-.8,3.89-.49,5.57,2.47,2.13,3.76,2.31,3.9,6.54,2.7,1.2-.34,2.29-.19,3.43-.09,1.55.14,2.86-.57,4.28-.95,1.39-.37,1.99-.88,1.97-2.28-.01-1,.02-2.01.2-2.99.47-2.48,1.11-2.97,3.64-3.06.5-.02,1,0,1.5.02,1.98.1,4.33-.4,5.85.49,1.81,1.06.82,3.66.93,5.58.09,1.64.88,2.45,2.32,2.78,3.39.78,6.78,1.54,10.19,2.25,1.77.37,2.77-.57,3.44-2.14,2.09-4.94,2.04-4.01,7.17-2.47.63.19,1.15.69,1.77.91,2.81,1.01,3.68,1.13,2.72,5.25-.38,1.64-.07,2.5.89,3.74,1.77,2.28,4.07,3.86,6.34,5.48,2.67,1.92,3.9,1.69,6.45-.67,2.74-2.55,3.23-2.57,6.06-.08.75.66,1.41,1.41,2.09,2.15q3.14,3.39.16,6.75c-2.52,2.84-2.48,3.21.09,6.6,1.1,1.45,2.04,3.02,3.06,4.53,2.22,3.33,3.05,3.56,6.57,1.91.75-.35,1.51-.73,2.31-.89,1.78-.36,3.63.68,4.09,2.54.37,1.49,1.09,2.77,1.64,4.15,1.04,2.6.66,3.41-2.02,4.6-.6.27-1.24.54-1.88.6-2.35.21-2.59,1.79-2.26,3.57.64,3.38,1.43,6.72,2.46,10.03.7,2.26,1.9,2.92,3.87,2.99.65.02,1.3-.28,1.96-.33,3.29-.26,3.5-.1,3.63,3.04.09,1.99-.09,3.97.43,5.95.42,1.59-.44,2.51-2.06,2.72-2.11.27-4.65-.41-6.14,1.36-1.4,1.67-.39,4.2-1.12,6.27-.27.76-.18,1.65-.22,2.48-.2,3.76-.21,3.79,3.38,5.37,1.24.55,2.07,1.62,3.13,2.26,1.33.8,1.53,1.53.98,2.76-.34.76-.66,1.52-1.08,2.24-.8,1.39-.51,3.16-2.08,4.38-1.79,1.4-3.09-.32-4.66-.19-1.79.15-3.46.43-4.23,2.04-1.71,3.55-4.2,6.68-5.49,10.45Z"/><path class="cls-3" d="M0,228c2.5-2.07,4.53-4.47,6.29-7.26,1.63-2.6,4.34-4.37,6.8-6.3,9.56-7.48,20.36-11.31,32.47-11.66,7.87-.22,15.6.33,23.03,3.21.46.18,1.01.22,1.39.5,4.1,3.04,9.23,4.2,13.31,7.32,2.67,2.04,4.77,4.62,7.01,7.04,6.29,6.78,10.9,14.62,14,23.36,2.52,7.12,3.31,14.42,2.78,21.91-.16,2.33-.22,4.7-1.48,6.73-1.06,1.72-.13,3.59-.81,5.33-1.9,4.9-3.23,10.04-7.15,13.93-.88.87-1.08,2.4-1.85,3.44-4.64,6.31-10.46,11.29-17.46,14.79-4.22,2.11-7.94,5.26-12.82,6.12-1.25.22-2.4.93-3.79.63-.62-.13-1.47-.21-1.95.11-5.79,3.84-12.18,2.02-18.31,1.82-5.3-.17-10.47-1.67-15.19-4.25-2.41-1.32-4.97-2.23-7.38-3.64-6.9-4.03-13.08-8.71-17.72-15.28-.26-.37-.78-.57-1.18-.85,0-22.33,0-44.67,0-67ZM90.95,261.54c.34-4.02-.06-7.9-1.17-11.5-1.24-4-2.26-8.13-4.61-11.82-.93-1.46-2.36-2.08-3.38-3.34-2.85-3.53-6.25-6.64-9.6-9.74-2.58-2.39-6.15-2.86-9.3-4.07-4.97-1.9-10.2-3.25-15.55-2.76-10.67.98-20.76,3.49-28.31,12.05-4.6,5.22-9.06,10.39-11.37,17.18-.68,1.99-.38,3.89-.88,5.8-1.32,5.06-.82,10.16-.22,15.3.68,5.93,3.39,11.12,6.12,16.08,2.38,4.32,5.74,8.12,10.62,10.6,5.16,2.62,10.33,4.99,15.69,7.17,4.35,1.77,8.39,1.55,12.49,1.06,5.04-.6,9.96-2.12,14.83-3.73,3.07-1.01,5.71-2.4,8-4.66,3.04-3,6.02-6.03,8.89-9.21,2.34-2.59,4.58-5.54,5.3-8.52,1.27-5.21,3.22-10.49,2.46-15.9Z"/><path class="cls-1" d="M1024,314c-2.75-1.18-4.32-3.51-5.88-5.89-2.07-3.15-4.18-6.27-6.28-9.4-1.64-2.68-3.17-5.41-4.24-8.39-.78-2.19-1.99-3.49-4.74-3.39-6.71.26-6.55,1.02-7.02-6.75-.2-3.36-.2-3.41,3.26-4.74,1.9-.73,3.02-1.73,2.84-4.03-.23-2.98-.23-6-.09-8.99.1-2.08-.82-2.64-2.65-2.53-.83.05-1.69.12-2.49-.05-1.86-.38-3.38-1.63-3.6-3.38-.43-3.45-.23-6.93.9-10.3.35-1.04,1.08-1.33,1.88-1.13,6.16,1.52,8.57-2.11,10.04-7.15.27-.94.65-1.86,1.01-2.89-.87-1.53-2.61-1.9-3.97-2.74-1.9-1.17-2.54-2.81-1.72-4.64.86-1.92.92-4.23,2.63-5.77,2.06.31,4.19-.57,6.23.73,2.6,1.65,3.61,1.54,5.44-.36,1.55-1.61,2.75-3.57,4.35-5.11,1.98-1.91,2.45-4.22,2.07-6.66-.32-2.02-1.18-3.95-1.85-5.91-.02-.05-.59.08-.91.13.08-3.16,2.04-4.74,4.78-5.65v38c-1.33-.2-1.5.95-2.04,1.71-1.01,1.43-.46,3.39-1.27,4.68-3.71,5.96-3.63,12.59-3.84,19.18-.28,8.86,3.22,16.88,5.73,25.11.16.53.93.88,1.41,1.31v25Z"/><path class="cls-3" d="M11.98,336.11c.96-.01,1.92-.03,2.88-.04,2.51,1.91,4.61,4.24,6.85,6.62-.95,2.56-2.73,4.51-4.49,6.46-.96,1.07-1.53,2.06-.79,3.54.76,1.52.89,3.26.7,4.87-.3,2.67.82,4.43,2.88,5.83.68.47,1.38.93,2.02,1.44q2.75,2.19.37,4.99c-.65.76-1.32,1.49-1.99,2.22-3.88,4.24-3.92,4.28-8.02.32-1.06-1.03-2.15-1.44-3.55-1.29-2.94.32-5.89.61-8.83.92,0-3,0-6,0-9,.48.11.99.14,1.43.34,3.01,1.38,5.09-.37,6.89-2.29,1.89-2.02,1.57-5.61-.13-8.76-1.37-2.53-3.39-2.79-5.83-2.26-.78.17-1.59.48-2.37-.04v-8c3.9.72,7.16-.33,9.48-3.62.69-.99,1.78-1.4,2.5-2.27Z"/><path class="cls-3" d="M1024,372c-2.49,1.14-4,3.4-5.92,5.19-1,.94-1.83,1.11-3.01.19-2.6-2.04-5.3-3.94-7.94-5.88-.04-1.15.69-1.89,1.3-2.64,2.45-3.02,3.16-6.47,2.88-10.28-.23-3.06-.9-5.7-3.29-8.02-2.85-2.76-2.63-3.73-.16-6.73,1.27-1.53,2.58-3.05,3.68-4.7,1.16-1.75,2.29-1.55,3.65-.36,1.87,1.64,3.74,3.29,5.66,4.87.89.74,1.89,1.38,3.14,1.34v8q-4.76.89-4.73,5.08c0,.5-.01,1,0,1.5q.12,4.28,4.73,5.42v7Z"/><path class="cls-3" d="M1024,289c-.48-.43-1.25-.78-1.41-1.31-2.51-8.23-6.01-16.25-5.73-25.11.21-6.6.13-13.23,3.84-19.18.8-1.29.25-3.25,1.27-4.68.54-.76.71-1.91,2.04-1.71v52Z"/><path class="cls-2" d="M11.98,336.11c-.72.87-1.81,1.28-2.5,2.27C7.16,341.67,3.9,342.72,0,342v-20c4.14,1.25,7.24,4.22,10.55,6.72,1.7,1.29,1.92,3.54.15,5.6-1.13,1.31.44,1.46,1.28,1.8Z"/><path class="cls-2" d="M0,350c.78.52,1.58.2,2.37.04,2.45-.52,4.47-.27,5.83,2.26,1.7,3.15,2.02,6.74.13,8.76-1.8,1.92-3.88,3.67-6.89,2.29-.44-.2-.95-.23-1.43-.34,0-4.33,0-8.67,0-13Z"/><path class="cls-2" d="M1024,365q-4.61-1.14-4.73-5.42c-.01-.5,0-1,0-1.5q-.03-4.19,4.73-5.08v12Z"/><path class="cls-1" d="M255.12,326.04c-1.05-2.88-4.13-5.03-3.06-8.7.25-.87-.49-1.52-1.12-2.05-1.1-.93-2.23-1.84-3.34-2.75-2.86-2.05-5.35-4.47-7.25-7.45-1.18-1.86-2.54-2.28-4.59-1.28-1.61.79-3.41,1.17-5.16,1.74-2.76-3.23-4.76-6.81-6.55-10.39,1.04-1.61,2.7-1.61,3.89-2.51,3.31-2.5,3.47-2.31,1.75-6.1-1.09-2.41-2.32-4.77-3.28-7.23-.7-1.82-1.69-2.62-3.72-2.43-2.1.2-4.48,1.36-6.29-.06-1.72-1.34-1.47-3.95-2.34-5.91-1.34-3-1.31-3.25,1.88-4.32,2.15-.72,3.57-3.04,6.22-2.65.62.09.92-.84.84-1.55-.39-3.61-.78-7.22-1.22-10.82-.15-1.18-1.08-1.54-2.14-1.7-1.3-.19-2.71.27-3.89-.53-2.08-1.41-4.63-2.53-3.71-5.9.26-.94.09-1.99.18-2.99.15-1.55,1.01-2.41,2.6-2.43,1.33-.02,2.69-.2,3.99,0,2.52.37,3.58-1.18,4.38-3.07,1.31-3.1.9-6.53,1.79-9.75.37-1.36-.96-2.78-2.73-3.58-3.82-1.72-4.02-2.64-2.25-6.44.56-1.2.85-2.46,1.24-3.7.78-2.54,1.8-3,4.56-2.53.64.11,1.26.36,1.89.54,4.03,1.15,4.36,1.03,6.46-2.31,1.77-2.8,3.56-5.58,5.36-8.39-2.28-2.18-4.52-4.31-6.89-6.57,2.04-2.51,3.79-4.77,5.65-6.94,1.09-1.27,2.41-1.94,3.61-.1.6.92,1.65,1.4,2.43,1.52,1.81.29,2.26,2.73,4.11,2.46,1.87-.27,2.3-2.22,3.35-3.45.91-1.06,2.22-1.29,3.42-1.84,3.36-1.52,3.88-3.24,2.54-6.72-.74-1.94-2.97-3.88-1.69-5.84.94-1.45,3.33-1.97,5.08-2.88.73-.38,1.46-.79,2.23-1.07,2.67-.99,4.25-.32,5.45,2.26.14.29.12.66.25.95,1.77,4.02,2.32,4.36,6.12,2.65,1.87-.84,3.82-1.02,5.72-1.55,2.82-.79,3.12-1.22,3.19-4.18.04-1.83.05-3.67-.01-5.5-.07-1.93,1.03-2.64,2.72-2.86,2.27-.29,4.63.53,6.84-.76.78-.45,1.65.29,1.92,1.13.44,1.38,1.01,2.83.97,4.23-.06,2.24.83,3.4,2.96,3.44,3.83.08,7.66.02,11.5,0,1.1,0,1.93-.39,2.19-1.57.11-.49.27-.96.4-1.44.54-2.01.15-4.98,2.07-5.75,2.97-1.2,6.05.72,9.06,1.39,1.02.22,1.25.94,1.25,1.83,0,1.17.23,2.4-.08,3.49-1.08,3.84,1.14,5.47,4.17,6.66,2.3.9,4.49,2.04,7.03,2.29,1.86.18,3.16-.21,4.05-1.96.97-1.91,2.1-3.93,4.47-4.19,3-.33,5.26,1.64,7.64,3.08.6.36.97,1.23.6,1.75-1.44,2.05.02,5.65-3.97,6.35,2.99,3.38,6.18,5.79,9.52,8.03,1.66,1.11,3.13,1.41,4.96.12,1.84-1.29,4-3.03,5.97-2.98,2.18.06,3.1,3.14,4.87,4.62.25.21.44.5.67.74q2.31,2.6-.27,5.02c-.24.23-.49.45-.73.68-3.32,3.04-3.57,5.37-.62,8.65,1.32,1.47,2.77,2.6,3.08,4.85.19,1.43,1.49,2.49,3.44,1.7,2.04-.83,4.28-.56,6.43-.6,2.38-.05,3.2.66,3.74,3.01.18.8-.02,1.68.14,2.48q1.1,5.53-3.78,7.27c-3.42,1.21-3.5,1.36-2.29,4.96.69,2.07.92,4.2,1.09,6.37.28,3.46,1.17,4.18,4.67,4.26,1.33.03,2.67-.02,4,.05.64.03,1.48.05,1.88.44,2.34,2.29,1.53,5.3,1.41,8.01-.07,1.7-1.63,2.81-3.45,3.08-.82.12-1.67.07-2.49.19-2.41.37-3.75,1.75-3.91,4.2-.15,2.33.03,4.69-.28,6.99-.41,3.11.78,4.93,3.6,6.22,5.65,2.61,5.62,2.74,2.93,8.47-1.58,3.36-1.9,3.5-5.76,2.59-3.95-.93-4.05-.96-5.77,2.5-1.31,2.63-2.43,5.36-3.6,8.06-.96,2.21.63,3.48,1.67,5.15,1.04,1.67,4.13,1.35,3.78,3.91-.25,1.81-1.81,3.08-2.8,4.58-.72,1.11-1.46,2.21-2.19,3.31-1.26-.19-2.71.32-3.73-.76-1.63-1.73-2.9-1.17-4.52.19-2.02,1.69-4.05,3.18-3.58,6.22-2.36-.15-1.46,2.71-3.03,3.28-.08-.14-.12-.34-.24-.42-.1-.06-.41-.03-.43.04-1.18,3.1-3.7,3.65-6.62,3.69-2.92.04-5.88-.36-8.75.5-.73-.78-.73-1.81-.99-2.76-1.69-6.18-2.54-6.61-8.25-4.2-.15.06-.33.04-.48.11q-4.33,1.84-3.11,6.36c.21.78.61,1.52.83,2.3.43,1.51-.13,2.78-1.56,3.2-3.27.96-5.78,3.14-8.44,5.03-1.72,1.23-2.88,1.17-4.2-.38-3.32-3.9-4.8-4.42-8.86.4-.21.25-.39.59-.67.73-2.83,1.43-1.65,3.48-.88,5.47-.12,1.84-.79,2.9-2.93,3.01-4.25.22-8.31-.36-12.19-2.11-.36-.37-.71-.73-1.07-1.1-4.15-2.6-8.74-2.79-13.43-2.48-.29-.15-.6-.29-.88-.45-3.96-2.33-6.35-5.21-3.88-10.08.49-.97.22-2.15-.47-3.27-.77-1.26-2.47-.82-2.68-1.1-1.67-2.15-4.28-2.36-6.15-2.03-2.6.46-3.36,3.68-3.96,5.84-1.02,3.67-3.71,4.13-6.54,4.75-.95.21-1.97.05-2.97.06ZM306.07,200.86c-12.5-.11-22.58,3.3-31.31,10.76-4.13,3.53-8.1,7.16-11.36,11.53-4.11,5.52-6.72,11.63-7.72,18.47-1.6,10.88-1.66,21.46,5.09,30.94.44,3.31,3.7,4.99,4.69,7.83,1.2,3.46,4.3,4.81,6.55,7.09,2.22,2.25,4.47,4.61,7.1,6.29,6.38,4.07,13.92,5.28,20.92,7.86.89.33,2.18.49,2.94.08,2.21-1.18,4.55-.73,6.83-.96,9.09-.89,17.44-3.51,24.65-9.44,1.07-.88,1.43-2.13,2.59-2.89,1.36-.9,2.25-2.52,3.62-3.41,3.23-2.11,5.15-5.39,7-8.42,5.04-8.27,7.25-17.49,7.45-27.21.05-2.4-.82-4.53-1.2-6.79-.99-5.94-2.79-11.7-5.69-17.03-3.53-6.48-8.14-11.77-14.69-15.68-5.65-3.38-11.58-5.79-17.7-7.86-3.47-1.17-7.2-1.28-9.76-1.16Z"/><path class="cls-1" d="M520.38,299.17c1.75,1.39,3.76.42,5.63.59,1.41.12,2.16.62,2.16,2.07,0,.67.07,1.33.09,1.99q.17,5.71-5.69,6.26c-1.7.16-3.94,1.79-4.06,3.45-.3,4.41-.89,8.86,1.58,13.02.63,1.07,1.47,1.12,2.28,1.58,2.12,1.2,2.4,4.73.22,5.42-3,.95-4.18,4.71-7.72,4.57-.27-.01-.76.67-.81,1.08-.29,2.26-2.21,3.47-3.24,5.24-1.61,2.74-1.38,4.89.87,7.09,3.19,3.13,3.06,3.63.34,7.11-1.41,1.81-3.44,2.89-4.69,4.77-.29-.04-.64.02-.85-.13-1.91-1.37-3.25-3.63-6.04-3.58-2.63.05-4.17,2.22-6.31,3.22-1.77.83-3.03,2.68-5.21,3.22-.94.23-1.73,1.39-2.4,2.26-.92,1.2.63,1.61.94,2.44,1.33,3.51.33,5.59-3.44,7.08-.61.24-1.3.3-1.88.59-3.46,1.77-4.7,1.37-6.05-2.02-1.97-4.97-3.32-5.54-8.37-3.35-2.24.97-4.57.57-6.86.61-1.92.04-2.91.48-3.18,2.72-.24,2.05-1.39,3.99-2.23,6.24-2.6-.82-5.24-.7-7.85-.75-1.99-.04-2.64-.97-2.54-2.78.06-1,.11-2,.03-2.99-.18-2.24-.73-3.77-3.51-4.48-3.8-.96-7.33-2.95-11.01-4.42-1.14-.46-2.46-.58-2.59,1.14-.13,1.63-2.08,1.49-2.47,2.88-.1.34-1.25.72-1.75.55-2.45-.82-4.6-2.31-6.33-4.15-1.01-1.07-.43-2.67.16-4.18,1.61-4.1,1.63-4.33-1.59-6.99-1.86-1.53-3.52-3.27-5.11-4.99-1.56-1.69-2.84-1.91-4.68-.95-2.88,1.5-2.75,1.32-5.14-.53-.94-.74-1.18-1.84-2.2-2.53-1.12-.76-1.1-2.32-.44-3.62.14-.27.7-.44.69-.65-.01-1.89,2.86-3.13,1.38-5.22-1.23-1.75.05-4.13-1.52-5.55-1.21-1.09-1.08-2.35-1.13-3.61-.07-1.75-.49-3.59-1.82-4.45-1.64-1.06-2.34-2.3-2.15-4.02.26-2.33-1.01-5.04,1.6-6.86.27-.19.17-.92.24-1.39.44-3.96.16-7.95,1.03-11.9.66-3.01.38-3.07-2.5-4.36-2.86-1.28-2.94-1.52-2.42-4.9.2-1.32.44-2.57.98-3.82,1.52-3.47,1.46-3.5,5.42-3.16,3.2.27,3.36.18,4.88-2.81,1.4-2.76,2.76-5.53,4.21-8.26.69-1.29.58-2.2-.16-3.59-2.21-4.21-1.96-4.84,1.38-8.14.59-.58,1.16-1.19,1.77-1.76,2.17-1.99,3.05-1.82,5.6-.32,1.39.82,1.72,3.28,3.69,2.76,2.01-.53,4-1.45,5.58-2.89,1.12-1.01,2.31-1.86,3.6-2.63,3.59-2.13,3.95-3.38,2.22-7.2-.26-.58-.53-1.16-.78-1.7,2.23-4.15,6.76-2.85,10.18-4.15.66-.25,2.35,1.06,2.76,2.5.27.95.6,1.88.84,2.84.35,1.39,1.11,1.9,2.54,1.46,3.5-1.09,7.01-1.89,10.77-1.34,1.86.27,2.26-1.44,2.61-3,.85-3.78.91-3.76,4.81-3.84.33,0,.66-.03,1-.03,7.02.02,5.85-.68,7.12,6.3.23,1.28.53,2.51,1.74,2.68,3.57.5,6.36,2.93,9.93,3.6,2.11.39,3.02-.06,4.05-1.59,2.48-3.67,3.5-3.78,6.81-.92.75.65,1.49,1.34,2.35,1.82,3.01,1.69,3.34,1.86,2.02,5.01-1.15,2.77-.71,4.58,1.54,6.44,2.53,2.1,4.83,4.48,7.35,6.85.61-.39,1.17-.7,1.69-1.08q3.2-2.34,5.77.73c.75.89,1.55,1.74,2.3,2.63,2.55,3,2.67,4.94-.61,7.47-2.06,1.59-2.47,3.43-1.67,5.12,1.86,3.93,2.14,8.36,4.18,12.19ZM456.99,357.88c6.39.76,12.19-.73,17.9-2.55,6.04-1.93,10.7-6.17,15.74-9.76.53-.38.93-.95,1.36-1.45,6.47-7.55,10.88-16.02,12.35-25.99,1.67-11.32-.29-21.98-6.49-31.45-3.88-5.93-9.78-10.11-15.63-14.22-5.76-4.05-12.02-5.39-18.83-5.55-3.93-.09-7.94.67-11.8-.81-.43-.16-1.06-.12-1.47.08-5.39,2.68-11.94,2.74-16.46,7.33-2.96,3.01-7.12,4.37-9.94,7.71-3.75,4.44-6.36,9.33-8.38,14.75-3.64,9.79-3.33,19.57-.27,29.25.75,2.36,1.25,5.04,2.75,7.15,1.8,2.54,3.37,5.18,4.84,7.92.9,1.68,2.02,3.45,3.51,4.56,6.25,4.65,12.14,10.04,20.3,11.27.47.07,1.16.22,1.34.55.81,1.54,2.14,1.26,3.47,1.23,2-.04,3.99-.01,5.7-.01Z"/><path class="cls-1" d="M797.2,313.06c1.36,2.81.94,5.77.65,8.68-.17,1.75-2.31,4.08-4.13,4.07-3.05-.01-5.12,2.68-8.24,2.52-1.01-.05-2.35,1.14-2.23,2.77-.28,1.94-.77,3.84-1.21,5.74-.39,1.67-1.17,2.05-2.65,2.23-2.76.35-5.6.58-8.21,1.46-2.25.76-3.33.21-4.33-1.71-3.34-6.41-2.35-5.57-9.01-1.94-.43.23-.76.63-1.16.91-3.43,2.46-3.62,2.56-1.62,6.18.77,1.41-.19,2.13-.22,3.18-.81,1.92-2.03,3.16-4.33,2.88-.63-.08-1.54-.1-1.92.27-2.23,2.17-3.96,0-4.32-1.22-.64-2.18-2.61-3.86-2.28-6.41.23-1.78-.7-2.98-2.6-2.62-3.36.65-5.71-2.02-8.73-2.43-.77-.1-.95-1.71-1.87-1.24-.96.49-2.25,1.4-2.37,2.27-.54,3.94-3.37,3.22-5.95,3.39-3.69.25-6-1.51-7.71-6.02-.16-.43-.36-1.12-.15-1.37,3.94-4.62.62-7.46-2.75-9.74-2.7-1.83-5.6-4.02-9.34-3.08-.92.23-1.78.36-2.69.94-3.16,2.01-5.25.97-5.76-2.71-.43-3.12-.73-6.32,2.57-8.24,1.27-.74,1.22-1.81,1.26-2.95-.31-3.09-2.64-5.33-3.49-8.14-1.24-4.09-3.02-6.8-7.93-5.03-1.78.64-2.76-.82-3.16-2.15-.66-2.18-.95-4.48-1.34-6.74-.3-1.75.18-2.97,2.28-2.89.5.02,1-.05,1.5-.07,5.1-.18,5.07-.18,5.03-5.03-.02-2.5.08-5,.09-7.5,0-2.86-.05-2.75-2.96-3.53-1.26-.34-2.52-.17-4.03-.46.25-3.27-.37-6.53,1.5-9.61.81-1.34,1.55-1.83,3.09-1.85,2.28-.02,4.97,1.32,6.75-.34,1.46-1.36,1.95-3.75,2.88-5.68.29-.6.59-1.19.88-1.79q1.32-2.79-1-4.78c-.76-.65-1.48-1.35-2.21-2.03-.68-.63-.97-1.36-.34-2.17,1.53-1.96,3.08-3.9,4.64-5.84,1.27-1.58,2.26-1.61,4.05-.23,3.91,3.03,6.62,2.72,10.6-.41.65-.51,1.29-1.06,1.94-1.57,2.87-2.23,4.05-4.93,3.09-8.66-.82-3.17-.63-3.36,2.24-4.35,2.16-.75,4.11-2.79,6.53-1.98,2.24.75,2.23,3.47,3.33,5.23.84,1.36,1.59,1.99,3.14,1.63,3.06-.72,6.12-1.48,9.2-2.07,1.95-.37,3.02-1.22,2.78-3.33-.07-.66-.02-1.33.03-2,.22-3.01.64-3.47,3.55-3.53,2-.04,4,0,6,.15,1.51.11,2.42.99,2.44,2.59.01.67,0,1.33,0,2q.07,4.75,4.52,6.39c.15.06.28.19.43.24,7.56,2.72,7.62,2.76,11.94-3.81.94-1.42,1.62-1.73,3.14-.98,2.15,1.06,4.65,1.28,6.38,3.33,2.16,2.56,2.32,4.33.11,6.86-2.4,2.74-2.27,3.17.69,5.55,1.54,1.24,2.81,2.82,4.15,4.3,1.23,1.36,2.44,2.38,4.09.58.1-.11.29-.13.44-.2,5.52-2.54,9.39-1.11,11.8,4.37.97,2.2.17,4.29-2.16,5.66-3.07,1.81-3.41,2.37-1.93,5.35,1.05,2.11,1.5,4.37,2.32,6.52.56,1.47,1.41,2.14,2.95,2.06,1-.05,2-.03,3,0,3.55.12,4.6,1.11,5.07,4.69.24,1.81.56,3.6.81,5.41.23,1.63-.59,2.51-2.15,2.74-.49.07-1,0-1.5.01-5.22.21-5.63.58-6.14,5.9-.13,1.32-.02,2.66,0,4,.03,4.07.88,5.21,4.69,6.16.8.2,1.7.06,2.46.35,1.14.43,2.06,1.06,1.29,2.62-.74,1.48-1.32,3.04-1.49,4.73-.22,2.18-1.66,2.63-3.57,2.45-1.33-.13-2.62-.31-3.9-.78-1.94-.71-3.21.23-3.97,1.98-1.25,2.87-2.21,5.88-4.29,8.35-.36.43.35,1.18,1.03,1.45ZM792.98,279.83c0-2.16.06-4.33-.01-6.49-.18-5.24-1.61-10.26-4.44-14.56-1.76-2.67-3.67-5.32-5.46-7.99-3.4-5.05-8.32-8.26-13.19-11.5-2.14-1.43-4.82-2.06-7.28-2.97-7.71-2.84-15.58-2.92-23.55-1.35-.97.19-2.03.12-2.78.9-1.62,1.68-3.8,1.8-5.88,1.91-1.53.08-2.93.34-4.25,1.08-8.57,4.83-15.78,11.26-19.92,20.18-6.57,14.17-6.22,28.43,1.54,42.24,2.58,4.58,5.58,8.8,9.53,12.36,1.4,1.26,3.25,1.44,4.63,2.73,6.06,5.65,13.55,7.89,21.61,8.84,5.89.7,11.25-1.13,16.81-2.55,6.51-1.67,11.65-5.67,17.3-8.83,2.48-4.23,7.09-6.7,9.19-11.27,1.61-3.5,3.59-6.85,5.02-10.42,1.57-3.93,1.19-8.17,1.15-12.32Z"/><path class="cls-2" d="M906.96,381.48c-31.66.59-61.01-24.84-60.6-61.41.41-36.86,28.64-60.01,60.78-60.24,33.15-.24,61.72,26.61,61.43,61-.3,35.25-28.46,61.44-61.61,60.65ZM906.51,365.15c24.86.43,45.47-19.59,45.64-44.9.16-24.66-20.7-44.2-44.77-44.18-25.88.02-44.5,21.12-44.72,44.24-.26,27.05,22.54,45.45,43.85,44.84Z"/><path class="cls-2" d="M608.59,293.92c28.77-.34,48.04,22.9,48.46,46.74.46,26.65-18.7,49.3-48.48,49.01-29.98-.29-48.08-23.54-47.84-49.32.27-29.44,25.86-47.48,47.87-46.43ZM633.37,342.35c.18-16.47-14.44-25.79-25.18-25.49-13.36.38-24.33,12-24.12,26.01.2,13.18,11.69,24.39,24.94,23.97,14.79-.47,24.72-12.22,24.36-24.49Z"/><path class="cls-1" d="M529.02,199.92c1.69,2.11,2.86,4.67,4.83,5.7,1.88.98,4.27-.95,6.46-1.49.64-.16,1.34-.08,1.98-.21,4.18-.86,4.75-1.59,4.8-5.92,0-.5,0-1-.02-1.5-.08-1.63.54-2.48,2.32-2.38,1.99.11,4,.18,5.99.06,2.15-.13,2.96,1.1,3.4,2.87.08.32.05.66.09.99.86,6.51.98,6.15,7,8.2,3.78,1.29,6.78,1.63,9.56-1.58.94-1.08,2.08-.94,3.11-.12,2.07,1.65,4.11,3.33,6.15,5.03,1.45,1.21,1.44,2.51.12,3.83-.24.24-.51.44-.72.69-1.15,1.42-3.49,1.97-3.79,3.8-.36,2.15,1.85,3.71,2.33,5.86.22.96,1.05,1.96,1.56,3,1.02,2.08,2.52,3.76,5.29,3.28.97-.17,2-.06,2.99-.11,1.72-.09,2.32.82,2.43,2.41.11,1.64-.1,3.25.43,4.92.85,2.69-.48,4.5-3.19,4.8-.82.09-1.66,0-2.5-.04-1.5-.07-2.34.3-2.68,2.09-.41,2.23-1.45,4.34-2.19,6.51-1.39,4.07-1.25,4.61,1.86,7.16.25.2.61.28.85.49q3.08,2.73.78,6.28c-.18.28-.25.62-.43.89-3.65,5.51-3.78,5.65-8.75,1.05-1.67-1.55-3.26-1.16-4.32-.32-2.22,1.76-4.62,3.17-7.04,4.59-1.49.88-2.01,2.16-1.63,3.8.15.63.5,1.22.65,1.85,1.07,4.75.46,5.65-4.38,6.62-1.61.32-3.2.83-4.82,1.01-2.88.32-3.8-.37-4.3-3.35-.19-1.15-.2-2.27-.8-3.33-.33-.58-.56-1.41-1.27-1.3-2.55.39-4.74-1.23-7.26-1.11-3.82.19-4.42.53-5.58,4.2-.93,2.94-1.22,3.14-4.08,2.59-.98-.19-1.95-.44-2.9-.71-4.4-1.25-5.5-2.77-3.73-6.94,1.21-2.84.22-4.59-1.39-6.43-1.31-1.5-2.64-3.05-4.21-4.24-1.85-1.4-3.6-2.75-6.37-.84-3,2.07-3.78,1.5-5.66-1.96-.24-.44-.51-.86-.74-1.3q-2.53-4.86,1.91-8.07c1.97-1.42,3.48-3.05,2.89-5.8-.21-.96-.29-2.03-.11-2.98.68-3.62-1.61-5.23-4.31-6.55-4.94-2.43-4.98-2.41-3.39-7.59.38-1.24,1.08-2.38,1.55-3.59.51-1.29,1.55-2.04,2.72-1.52,5.25,2.33,7.57-1.46,9.81-4.81.96-1.43,2.63-2.9,2.57-4.53-.05-1.41-1.63-2.73-2.43-4.15-1.49-2.64-1.34-3.76,1.04-5.35,2.43-1.62,5.03-2.98,7.54-4.46ZM549.86,252.13c6.13.6,13.04-4.98,13.17-12.66.09-5.56-6.69-12.35-12.35-12.46-5.83-.11-12.49,6.53-12.86,12.31-.51,7.92,6.48,13.37,12.04,12.81Z"/><path class="cls-1" d="M953.33,145.91c.39,0,1.06,0,1.72,0,2.51.02,3.31.58,3.84,2.82.15.64.02,1.33.1,1.99.28,2.37,1.32,4,3.91,4.42,3.11.5,6.19,1.16,9.28,1.77,1.46.29,2.08-.72,2.72-1.71,1.23-1.89,1.57-4.9,4.19-5.16,2.09-.21,3.79,1.74,5.54,2.97.53.37,1.18.58,1.78.84,1.79.78,1.97,2.2,1.24,3.72-1.06,2.21-3.27,4.41-2.57,6.7.6,1.99,3.02,3.41,4.58,5.13.78.86,1.44,1.83,2.15,2.75,1.16,1.49,2.58,1.95,4.34,1.11.45-.21.9-.43,1.37-.6,4.22-1.51,5.86-.86,7.82,3.07.22.44.44.89.61,1.35,1.66,4.38,1.16,5.44-3.19,6.85-4.96,1.61-5.35,2.27-4.03,7.45.55,2.15.18,4.3.21,6.44.03,1.95.68,3.12,2.79,3.35,1.14.13,2.32.43,3.33.94,3.47,1.76,4.93,1.5,3.23,6.64-.66,1.98-.04,4.27-1.5,6.13-.65.84-1.26.96-2.08.61-.27-.12-.41-.51-.66-.71-1.64-1.33-3.79-1.13-5.65-1.48-2.34-.45-2.11,2.52-3.23,3.82-.22.25-.47.49-.61.79-.99,2.12-3.09,4.01-2.95,6.28.13,2.18,1.93,4.1,3.45,5.81,1.25,1.41,1.24,2.6,0,3.86-.81.81-1.68,1.57-2.56,2.31-4.52,3.8-4.92,3.78-8.91-.26-.58-.59-1.16-1.2-1.71-1.81-.79-.87-1.61-.88-2.64-.34-2.79,1.45-5.73,2.64-8.43,4.23-2.91,1.71-3.07,2.55-2.17,6.16.78,3.14.63,3.12-2.77,4-2.6.68-5.17.93-7.83.87-2.09-.05-3.03-1.02-3-3.08.02-1.33-.11-2.67-.06-4,.05-1.66-.81-2.53-2.34-2.64-3.34-.24-6.57-.93-9.73-2.01-1.21-.41-1.93.22-2.5,1.06-1.29,1.9-1.98,4.64-4.17,5.38-2.32.79-4.09-1.8-6.28-2.46-.47-.14-1-.13-1.45-.31-2.45-.98-2.93-2.21-1.64-4.65.77-1.47,1.78-2.81,2.68-4.21.59-.9,1.01-2.17.07-2.7-2.74-1.54-3.57-4.58-5.65-6.59-2.02-1.96-2.93-2.01-5.64-.64-.58.29-1.14.61-1.73.88-3.56,1.6-4.84,1.19-6.09-2.23-.78-2.14-1.68-4.25-1.55-6.69.18-3.32.03-3.34,3.54-4.31,1.31-.36,2.58-.82,3.28-2.06.67-1.19-.32-2.19-.52-3.28-.29-1.62-.27-3.3-.27-4.96,0-2.55-.76-3.98-3.62-4.84-5.89-1.77-6.6-3.91-4.23-9.55.32-.76.6-1.54.94-2.3,1.21-2.73,1.87-3.42,4.5-2.42,3.75,1.43,5.76-.33,7.29-3.12,1.04-1.9,2.74-3.3,3.56-5.37.54-1.37,1-2.44-.32-3.51-.13-.1-.23-.24-.34-.37q-4.43-5.11.39-9.74c.24-.23.51-.43.75-.66,3.37-3.16,3.49-3.26,6.49.19,1.81,2.08,3.36,2.34,5.98,1.34,2.86-1.09,5.31-3.29,8.65-3.29,1.2,0,1.94-1.18,1.95-2.52,0-.33,0-.67-.04-1-.22-1.91-1.81-4.16-.15-5.64,1.61-1.44,4.16-.48,6.56-.8ZM955.44,224.23c5.55,0,6.01-.45,9.82-1.55,4.42-1.28,7.83-4.27,11.03-6.97,3.41-2.88,6.57-6.72,7.73-11.47,1.7-6.97,1.69-13.71-2.26-20.13-1.46-2.36-3.64-4.21-4.94-6.42-3.09-5.24-8.94-4.88-13.17-7.62-.23-.15-.72-.12-.97.02-2.65,1.49-5.56.48-8.32.9-3.19.48-6.54.25-9.47,1.86-6.32,3.48-10.35,9.01-12.82,15.56-3.15,8.32-1.11,16.23,2.94,23.75,1.01,1.88,2.19,4.06,3.69,5.18,5.23,3.93,10.74,7.74,16.75,6.89Z"/><path class="cls-2" d="M175.02,350.12c-14.63.48-28.69-11.48-28.49-27.51.22-17.89,13.61-28.74,28.03-28.73,15.14,0,28.66,12.23,28.54,27.95-.12,15.86-12.37,28.31-28.09,28.29Z"/><path class="cls-1" d="M624,276.6c2.54-4.8-.93-7.63-4.6-11.25-3.04-2.99-5.37-4.22-9.35-2.72-2.13.8-2.58.2-3.05-2.35-.3-1.63-.65-3.25-.94-4.88-.31-1.73-2.24-3.23-1.42-4.97.87-1.85,3.37-2.46,4.96-2.91,3.24-.91,4.13-2.88,4.59-5.63.08-.49.12-1.01.34-1.44,1.85-3.55,1.56-6.8-1.34-9.67-1.66-1.64-1.55-3.07.17-4.64,1.46-1.33,2.69-2.91,4.08-4.33,3.19-3.26,4.66-3.62,7.01-.13,1.89,2.8,3.97,2.81,6.31,2.13,2.16-.63,4.4-.8,6.57-1.94,2.7-1.42,4.59-2.76,5.27-5.88.48-2.21,2.15-2.87,4.12-1.58,1.59,1.04,3.03,1.78,4.95,1.67,1.89-.11,2.76,1.68,3.92,2.7.95.83-.45,2.1-.55,3.21-.07.85-.38,1.56-.72,2.33-.73,1.65-.59,3.14.99,4.41,1.16.93,2.21,2.03,3.13,3.2,2.95,3.76,6.26,6.37,11.28,3.79,1.82-.93,2.4.31,2.91,1.51.45,1.04.65,2.19.93,3.3,1.47,5.72,1.16,6.55-4.41,8.7-2.03.79-3.17,1.64-3.52,3.97-.41,2.73-1.37,5.41-2.3,8.03-1,2.8-.66,4.94,1.83,6.88,1.84,1.44,1.72,3.12.12,4.81-.45.48-1.08.77-1.58,1.21-6.1,5.33-4.94,4.75-10.45.24-1.17-.95-2.28-1.19-4.02-.95-3.45.48-6.53,2.16-10,2.45-1.47.12-1.82,1.47-2.31,2.81-2.27,6.23-1.13,5.74-7.41,4.34-.48-.11-1.01,0-1.49-.13-3.76-1-4.12-1.5-4.02-6.32ZM655.94,248.99c.69-4.84-3.86-11.87-9.24-14.21-6.07-2.65-11.69-1.9-16.75,2.05-6.33,4.94-7.31,11.06-5.43,17.36,1.85,6.21,7.22,9.76,13.42,11.62,1.07.32,2.21.06,3.32-.59,2.94-1.73,6.11-3.08,8.95-4.95,4.01-2.64,5.9-6.56,5.74-11.29Z"/><path class="cls-1" d="M845.98,188.46c.21,1.91-1.08,3.41-1.54,5.17-.26,1.01-.24,1.57.75,2.44,2.49,2.15,4.61,4.72,6.94,7.07,1.44,1.45,3.03,2.53,5.23,1.37.56-.29,1.27-.33,1.92-.4,3.16-.35,3.75.04,4.7,3,.59,1.86,1.25,3.71,1.76,5.59.38,1.41.1,2.66-1.48,3.24-.31.11-.61.26-.92.33-4.46,1.03-6.78,3.91-7.43,8.36-.16,1.13-.64,2.23-1.12,3.28-1.61,3.5-1.94,6.44,2.03,8.9,2.37,1.47,2.23,2.82-.26,4.55-1.33.93-1.98,2.36-3.52,3.19-3.35,1.81-3.87,2.06-6.44-.28-.37-.34-.73-.69-1.06-1.06-1.45-1.6-2.95-2.07-5.26-1.45-3.14.84-6.28,2.19-9.7,1.57-1.61-.29-1.98,1.02-2.27,2.09-.64,2.34-.09,5.49-2.54,6.66-2,.95-4.38-.73-6.63-1.07-.49-.07-1.01.02-1.49-.09-3.54-.85-4.3-2.31-2.96-5.64.37-.92.88-1.8,1.18-2.74.49-1.54.29-2.94-1.04-4.06-2.28-1.91-4.24-4.15-6.63-5.97-1.79-1.37-3.32-1.96-5.41-1.03-.73.33-1.59.38-2.41.49-1.24.16-2.23,0-2.58-1.55-.32-1.45-1.18-2.8-1.39-4.25-1.06-7.45-2.62-5.83,4.54-8,1.72-.52,2.57-1.36,2.92-2.9.76-3.33,1.13-6.74,3.01-9.75.87-1.4-.27-2.4-1.2-3.41-3.76-4.14-3.72-4.81.12-9.03.89-.98,1.75-1.99,2.66-2.95,2.74-2.91,4.24-3.19,6.1.36,2.17,4.14,4.72,3.73,7.97,2.27,1.42-.64,2.9-.8,4.39-.74,2.31.09,3.32-.99,4.27-3.11,3.09-6.9,3.35-6.89,10.66-4.35.78.27,1.51.69,2.3.88,1.66.4,2.04,1.5,1.83,3.03ZM830.15,201.85c-2.77-.93-5.18,2.09-8.28,2.84-1.76.43-3.64,2-4.3,3.95-1.15,3.36-3.55,6.38-3.32,10.12.58,9.48,9.83,15.42,16.33,15.14,8.88-.38,16.09-6.85,16.2-15.98.11-9.42-7.17-15.43-16.62-16.06Z"/><path class="cls-1" d="M195.33,220.44c3.04,1.63,4.1,4.8,6.14,7.14,1.01,1.15.73,2.48-.28,3.62-.22.25-.45.51-.72.68-4.73,3.02-4.04,7.55-3.18,12,.21,1.11.56,2.22.7,3.37.24,2,1.37,3.12,3.31,3.84,4.14,1.53,4.77,3.65,2.52,7.52-.25.42-.73.79-.8,1.22-.3,2.01-.71,4.3-2.71,4.9-1.67.5-3.44-1.03-4.87-2.03-1.72-1.2-2.67-1.14-4.14.41-2.47,2.6-4.79,5.5-8.29,6.87-1.02.4-1,1.2-1.01,2.01-.02,1.16.05,2.33.04,3.49-.02,3.53-.28,3.83-3.88,4.32-.82.11-1.66.17-2.49.15-1.64-.04-3.45.69-4.88-.26-1.39-.93-.74-2.76-1.04-4.18-.33-1.56-1.09-2.69-2.52-3.48-3.49-1.93-7.52-2.34-11.12-3.98-.59-.27-1.31-.19-1.88.28-.51.42-.98.91-1.53,1.27-4.41,2.82-6.71,2.26-9.54-2.26-2.15-3.44-2.08-5.09.85-8.05,2.44-2.46,3.55-5.13,2.5-8.53-.65-2.11-.39-4.3-.39-6.45,0-1.77-.59-2.8-2.53-2.9-1.76-.09-2.85-1.68-4.48-2.21-1.36-.45-1.28-1.96-.95-3.03.64-2.03,1.44-4.02,2.4-5.92,1.46-2.89,4.05-4.2,6.96-2.84,2.65,1.24,4.21.57,6.18-1.11,1.8-1.54,3.13-3.71,5.78-4.3,1.01-.23,1.63-1.53,1.55-2.88-.09-1.49-.04-2.99-.02-4.49.06-4.17.07-4.16,3.99-4.59,1.81-.2,3.6-.54,5.41-.72,2.03-.2,3.68.19,3.79,2.74.02.46.6.93.55,1.35-.67,5.2,2.66,6.85,6.82,7.84.63.15,1.26.41,1.81.75,4.44,2.77,8.4,1.72,11.96-1.52ZM153.85,244.92c-.76,9.88,11.32,20.4,22.43,17.63,1.91-.48,3.91-.73,5.35-2.38,1.41-1.63,3.07-3.06,4.41-4.74,2.97-3.72,4.14-8.03,4.06-12.8-.07-4.28-2.44-7.72-4.94-10.42-4.88-5.26-11.31-6.32-18.36-4.46-2.32.61-3.48,2.41-5.25,3.51-4.79,2.98-7.85,7.33-7.71,13.67Z"/><path class="cls-1" d="M400.03,225.65c0-3.4.01-6.55,0-9.7-.01-1.52.71-2.37,2.09-2.99,2.22-.99,4.53-.94,6.84-.98,1.49-.03,3.04.39,4.44-.25,2.84-1.29,5.01-2.69,6.01-6.38,2.06-7.56,1.59-6.48,8.8-4.6.63.17,1.32.13,1.95.31,4.55,1.33,4.38,1.3,3.19,6.09-.75,3.04-.93,6.22,1.19,9,.6.78,1.14,1.62,1.62,2.48,1.22,2.24,3.02,3.49,5.57,3.99,4.47.88,4.45.98,3.27,5.48-.42,1.6-.77,3.24-1.33,4.79-1.09,3.01-2.1,3.48-5.34,2.64-1.56-.4-3.1-.88-4.64-1.32-1.61,2.46-4.98,1.26-6.88,3.4-1.7,1.91-2.91,4.01-3.77,6.35-.27.74-.18,1.56-.87,2.22-1.11,1.05-2.08,2.04-3.87,1.43-2.03-.69-4.13-1.25-6.25-1.63-1.77-.32-1.99-1.38-2.02-2.85-.03-1.75.69-3.24,1.39-4.74.92-1.97,1.01-3.83-.41-5.61-.31-.39-.73-.76-.86-1.21-1.44-4.96-4.96-6.6-10.14-5.94ZM421.24,229c3.83.03,7.54-3.05,7.62-6.35.07-2.75-3.06-5.48-6.49-5.65-3.41-.17-6.36,2.64-6.33,6.03.02,3.38,2.25,5.94,5.2,5.97Z"/><path class="cls-1" d="M873.04,220.14c.57.06,1.64-.05,2.52.31,1.96.82,3.17-.11,4.25-1.5,1.13-1.45,2.24-2.75,4.28-3.09,1.13-.19,1.69-1.36,2.11-2.55.49-1.42.64-2.86.91-4.31.47-2.54,1.72-3.09,4.24-2.14,2.46.94,4.93,1.87,7.28,3.03,2.73,1.35,3.02,2,1.52,4.52-1.69,2.84-1.7,5.18.81,7.48.71.65,1.22,1.56,1.71,2.41,1.6,2.8,3.1,5.35,7.2,4.87,2.07-.25,3.05,1.5,2.88,3.73-.1,1.32-.42,2.62-.6,3.93-.48,3.52-2.11,5.03-5.66,5.21-.17,0-.35.07-.5.02-3.47-1.02-6.37.15-9.62,1.54-2.75,1.18-3.86,2.76-4.38,5.22-1.42,6.76-1.72,6.98-8.05,4.89-.47-.16-.9-.42-1.37-.61-4.62-1.84-4.58-1.83-3.54-6.94.19-.94.21-2.02-.05-2.93-1.26-4.48-3.92-7.76-8.45-9.28-.94-.31-1.91-.52-2.86-.77-1.32-.35-2-1.19-1.76-2.55.51-2.89.93-5.82,1.69-8.64.73-2.71,3.14-1.72,5.43-1.84ZM882.98,230.8c-.05,3.64,2.21,6.21,5.46,6.19,4.49-.02,7.61-2.73,7.64-6.64.03-3.5-2.64-6.24-6.21-6.38-3.84-.14-6.83,2.82-6.89,6.82Z"/><path class="cls-2" d="M1019.22,204.65c.32-.05.89-.18.91-.13.67,1.95,1.53,3.89,1.85,5.91.39,2.45-.09,4.75-2.07,6.66-1.6,1.55-2.8,3.5-4.35,5.11-1.83,1.9-2.84,2.01-5.44.36-2.04-1.3-4.17-.43-6.23-.73.21-1.36,1-2.38,1.89-3.53,2.04.93,3.97,1.84,5.92,2.7,1.25.55,2.38.3,2.82-1.04.82-2.45,2.44-4.33,4.29-5.95,1.5-1.31,1.93-2.77,1.17-4.37-.78-1.65-.06-3.4-.76-4.98Z"/><path class="cls-3" d="M312.26,335c-.78-1.99-1.95-4.04.88-5.47.27-.14.45-.48.67-.73,4.06-4.82,5.54-4.3,8.86-.4,1.32,1.55,2.48,1.61,4.2.38,2.66-1.89,5.17-4.07,8.44-5.03,1.43-.42,1.98-1.7,1.56-3.2-.22-.78-.62-1.51-.83-2.3q-1.23-4.51,3.11-6.36c.15-.06.33-.04.48-.11,5.71-2.41,6.57-1.98,8.25,4.2.26.95.26,1.98.99,2.76,1.94,1.73,4.5,1.53,6.43.87,2.81-.96,5.34-.69,8.08.22.57-1.82,1.06-3.36,1.54-4.9,1.58-.57.68-3.43,3.03-3.28,2.26,1.04,4.48,2.17,6.79,3.1,1.62.65,2.09,1.7,1.23,3.07-2.58,4.11-1.22,6.9,2.62,9.22,2.54,1.54,3.92,5.43,6.75,5.5,2.47.06,4.98-2.33,7.5-3.6.43-.22.96-.23,1.7-.39,1.12,2.34,2.34,4.66,3.37,7.07.95,2.22.39,3.49-1.83,4.81-.57.34-1.16.65-1.76.93-1.51.69-1.7,1.83-1.27,3.3.66,2.23,1.37,4.46,1.83,6.74.42,2.11.28,4.68,1.68,6.1,1.49,1.51,4.11.58,6.22.52,2.08-.06,2.65.9,2.5,2.72-.05.66,0,1.34-.06,2-.21,2.13.65,4.66-.77,6.27-1.34,1.52-3.79.62-5.74.67-2.13.05-3.37.86-4.04,2.92-.87,2.68-1.79,5.37-2.99,7.92-.75,1.58-.22,2.58.78,3.51,1.83,1.7,3.76,3.29,5.72,5-2.32,2.85-4.24,5.08-6.01,7.43-1.25,1.66-2.33,1.42-3.67.18-1.22-1.13-2.55-2.14-3.84-3.19-.9-.73-1.84-.76-2.7,0-2.77,2.43-5.76,4.53-9.04,6.19-1.04.52-1.35,1.33-1.11,2.45.41,1.95.72,3.93,1.12,5.88.3,1.45-.34,2.2-1.67,2.53-.81.2-1.62.44-2.44.51-1.98.17-3.96,1.71-5.81.83-1.88-.89-1.94-3.35-2.74-5.13-.62-1.37-1.32-2.13-2.9-2.21-3.16-.17-6.31-.43-9.45-.83-2.15-.28-3.44.38-4.27,2.43-.74,1.81-.49,4.54-2.35,5.27-2.14.84-4.37-1.03-6.64-1.41-.16-.03-.33-.07-.48-.13q-4.35-1.42-2.9-5.78c.31-.95.56-1.92.95-2.83.63-1.47.16-2.57-1-3.48-2.75-2.16-5.55-4.26-8.25-6.47-1.25-1.02-2.31-.79-3.64-.16-1.78.83-3.28,3-5.2,2.52-1.92-.49-2.07-3.19-3.38-4.69-1.18-1.35-2.45-2.71-3.02-4.57,1.31-1.85,3.34-2.73,5.09-3.95,1.43-.99,1.85-2.04,1.29-3.79-.91-2.84-1.42-5.81-2.27-8.67-.92-3.07-1.18-3.1-4.52-3-1.29.04-2.63.39-4.09-.34-.35-2.86-.82-5.78-1.05-8.73-.21-2.66.11-2.88,2.65-3.11,2.29-.2,5.07,1.01,6.73-.5,1.4-1.27,1.52-3.91,2.34-5.89.94-2.28,2.03-4.5,2.88-6.37-1.65-1.84-3.08-3.45-4.52-5.05ZM353.62,327.52c-17.15-.74-33.17,14.62-33.63,31.54-.57,20.76,15.82,35.52,33.26,35.85,17.51.33,34.09-13.84,34.44-34.81.28-16.53-14.33-33.05-34.06-32.58Z"/><path class="cls-3" d="M255.12,326.04c.99-.01,2.02.14,2.97-.06,2.82-.62,5.52-1.07,6.54-4.75.6-2.16,1.36-5.38,3.96-5.84,1.87-.33,4.49-.12,6.15,2.03.21.27,1.91-.17,2.68,1.1.68,1.12.96,2.3.47,3.27-2.47,4.88-.08,7.75,3.88,10.08.28.17.59.3.88.45.48.64.95,1.29,1.43,1.92,2.68,3.5,3.01,3.59,7.38,2.1,1.54-.52,3.08-1.03,4.62-1.54.36.37.71.73,1.07,1.1-.29,2.97,1.22,5.48,2.17,8.11.51,1.43.27,2.2-1.02,2.76-.46.2-.96.3-1.39.55-2.11,1.22-5.09,1.43-6.09,3.96-1.47,3.7-2.18,7.66-2.65,11.63-.13,1.11.7,1.83,1.45,2.49,1.37,1.19,2.78,2.34,4.57,3.84-2.92,3.06-5.73,6-8.67,9.08-2.12-1.68-4.1-3.19-6.01-4.78-1.16-.96-2.36-1.21-3.66-.45-2.64,1.54-5.59,2.19-8.51,2.7-2.04.35-2.84,1.39-3.2,3.2-.32,1.63-.69,3.25-1.12,4.86-.4,1.51-1.46,2.19-3.01,1.91-1.47-.26-2.97-.49-4.39-.95-4.96-1.63-5.42-.61-4.29-6.26.42-2.12-.27-3.48-1.73-4.81-2.81-2.57-6.09-4.68-8.14-8.04-.45-.74-1.3-1-2.2-.9-.99.11-2,.17-2.98.36-4.46.88-4.57.92-5.52-3.22-1.79-7.86-2.93-6.61,4.47-9.85,2.21-.97,3.56-2.15,3.32-4.83-.2-2.15.43-4.25,1.15-6.33.98-2.82.83-3.48-1.69-4.97-5.29-3.14-3.63-4.28-.99-7.59,1.14-1.43,2.17-2.97,3.41-4.31,2.62-2.84,4-2.81,6.56-.11.23.24.43.51.65.76q2.99,3.45,7.49,1.35ZM263.48,339.78c-5.84.05-10.54,4.78-10.41,10.49.14,6.04,5.27,11.27,11.13,11.36,5.7.09,10.8-5.01,10.86-10.86.07-6.44-4.79-11.06-11.59-11Z"/><path class="cls-3" d="M54.91,336.01c1.87-1.49,3.21-3.52,5.59-4.52,2.6-1.1,4.46-1.33,5.68.9,2.15,3.93,4.96,4.18,8.68,2.71,1.65-.65,3.51-.78,5.27-1.14,3.74-.09,3.76-.08,4.71-3.31.41-1.4.71-2.84,1.05-4.26.32-1.21,1.1-2,2.21-2.51,2.61,1.19,5.45,1.44,8.22,1.96,1.54.29,1.94,1.05,1.72,2.39-.26,1.64-.6,3.26-.85,4.91-.21,1.39-.17,2.5,1.67,2.97,3.27.84,6.08,2.7,8.61,4.89,1.67,1.44,2.92,1.5,4.7-.07,4.01-3.53,4.09-3.38,7.05.86.75,1.08,1.74,1.99,2.66,2.95,1.95,2.04,1.94,2.37-.35,4.24-.9.74-1.84,1.43-2.82,2.07-1.64,1.08-2.2,2.36-1.18,4.21,1.47,2.67,1.82,5.67,2.37,8.61.69,3.75,1.05,4.46,5.01,4.97,2.5.32,3.06,1.4,2.96,3.53-.09,2,.06,4.01-.12,5.99-.22,2.46-.81,3.2-3.11,2.75-4.65-.91-7.44.77-9.29,5.01-.85,1.94-2.34,3.64-3.72,5.3-1.26,1.52-1.29,2.92-.25,4.5.9,1.37,2.07,2.6,2.48,4.54-2.36,1.96-4.77,3.98-7.2,5.98-.95.79-1.8.53-2.61-.31-1.7-1.76-2.6-4.84-5.18-5.04-2.14-.17-4.39,1.26-6.62,1.88-1.44.4-2.92.67-4.39.92-3.11.53-3.24.63-3.67,3.56q-.74,5.05-5.92,4.47c-.66-.07-1.33-.11-1.99-.2-4.21-.6-4.7-.81-4.26-4.95.39-3.66-1.01-5.56-4.19-6.75-1.08-.4-2.14-.97-3.07-1.66-3.5-2.59-6.96-3.65-10.61-.27-1.07.99-2.11.63-2.99-.44-.85-1.03-1.83-1.96-2.58-3.05-1.21-1.76-3.56-3.2-3.5-5.26.06-2.15,2.61-3.25,4.2-4.67,1.39-1.24,2.08-2.41,1.22-4.33-.68-1.5-1.29-3.17-1.31-4.78-.08-4.58-1.51-7.59-6.74-7.54-1.56.01-2.31-1.21-2.15-2.78.29-2.81.64-5.62.96-8.43.17-1.49,1.09-2.1,2.42-1.74,5.4,1.46,8.86-.91,11.35-5.47.47-.86,1.25-1.56,1.89-2.32,1.27-1.49,1.92-2.86.52-4.82-1.35-1.88-1.99-4.18-2.56-6.45ZM113.18,368.42c.09-15.96-12.29-27.91-29.33-28.1-16.83-.19-28.23,14.41-27.93,28.43.35,16.12,10.59,27.8,27.77,28.28,16.4.46,29.68-12.66,29.49-28.61Z"/><path class="cls-3" d="M754.84,347.16c.03-1.04,1-1.77.22-3.18-1.99-3.62-1.81-3.72,1.62-6.18.4-.29.74-.68,1.16-.91,6.66-3.63,5.67-4.48,9.01,1.94,1,1.92,2.08,2.47,4.33,1.71,2.61-.88,5.45-1.11,8.21-1.46,1.48-.19,2.26-.57,2.65-2.23.44-1.91.93-3.8,1.21-5.74,3.24-.07,5.95,1.91,9.07,2.36,1.22.18,2.04,1.06,1.78,2.52-.12.65-.1,1.33-.22,1.98-.37,2.1-1.79,4.5-.51,6.26,1.62,2.21,4.12,3.8,6.3,5.58,1.39,1.13,2.84.46,4.21-.17,1.63-.75,3.07-1.78,5.09-.64,2.08,1.17,3.17,2.85,3.7,5.02.27,1.13.35,2.3.55,3.44.23,1.37-.28,2.25-1.63,2.61-.16.04-.33.08-.48.15-1.78.86-4.24.57-5.4,2.29-1.35,2-.43,4.53-.66,6.82-.07.66-.02,1.33-.03,2q-.06,5.9,5.57,7.65c2.8.87,2.86,1.02,1.43,3.71-.39.73-.8,1.46-1.23,2.17-1.12,1.83-1.86,4.36-3.49,5.29-1.93,1.09-3.82-1.33-5.77-2.11-1.27-.51-2.44-.9-3.77-.11-2.85,1.7-5.73,3.36-8.66,4.94-1.27.68-1.42,1.73-1.38,2.92.08,2.46.43,4.89,1.31,7.52-3.47.49-6.55.95-9.64,1.37-1.06.14-1.36-.67-1.69-1.46-.94-2.27-.4-5.41-2.49-6.81-1.79-1.2-4.64-.74-6.63-1.77-3.18-1.66-5.3-1.05-7.12,1.83-.34.55-.95.93-1.42,1.4-1.25,1.24-2.4,1.49-3.82.1-2.36-2.3-4.88-4.44-7.58-6.88,1.77-1.77,3.38-3.38,5-4.99,1.18-1.18,1.51-2.37.7-4.01-1.1-2.22-2-4.56-2.81-6.91-.67-1.96-1.9-2.52-3.81-2.11-.64.14-1.33.09-1.99.14-1.53.1-2.54-.39-2.78-2.1-.19-1.3-.5-2.61-.94-3.85-1.39-4-1.45-4.05,2.28-6.1,2.47-1.36,4.94-2.73,7.73-3.38,1.89-.44,2.75-1.72,2.78-3.6.03-2.32.03-4.65.04-6.97ZM776.5,348.83c-4.61-.61-8.69,1.58-12.23,5.12-3.7,3.69-5.66,8.04-5.61,13.37.1,11.48,8.24,19.61,19.9,19.66,10.45.05,19.14-8.08,19.08-18.29-.07-11.33-9.85-20.56-21.14-19.86Z"/><path class="cls-3" d="M698.12,345.33c3.38-1.95,7.46-2.53,9.34-6.04.75.25,1.25.27,1.33.46,2.71,6.29,9.21,5.58,14.18,7.67.96.4,1.95-.25,2.78-.81.83-.55,1.56-1.24,2.39-1.8,3.78-2.53,3.77-2.51,6.37,1.14.77,1.08,1.71,2.04,2.53,3.08,3.07,3.91,2.52,6.09-2,7.89-.77.31-1.57.55-2.32.89-.62.28-1.29.75-1.2,1.44.32,2.51-.15,4.95-.32,7.42-.1,1.45,1.18,2.28,2.16,3.18,1.32,1.2,3.2,1.83,3.92,3.92-2.71,2.58-5.45,5.21-8.21,7.83-1.06,1.01-2.07.91-2.94-.24-.4-.53-.73-1.12-1.05-1.7-4.04-7.28-14.41-8.03-19.34-1.43-.39.52-.87.99-1.55,1.75-2.53-2.78-4.95-5.47-7.42-8.13-1.11-1.2-1.29-2.25.14-3.32.66-.5,1.22-1.13,1.87-1.65,6.23-4.91,5.94-11,1.53-18.2-.6-.97-1.67-1.63-2.17-3.38ZM717.66,355.92c-3.04.06-5.73,2.88-5.51,5.78.18,2.42,2.9,5.04,5.27,5.09,2.64.05,6.07-3,6.19-5.5.13-2.76-2.83-5.44-5.94-5.37Z"/><path class="cls-2" d="M85.88,326.38c-.35,1.42-.64,2.86-1.05,4.26-.95,3.23-.97,3.22-4.71,3.31.38-1.9,2.04-2.81,3.31-3.89,1.23-1.04-.14-3.68,2.45-3.68Z"/><path class="cls-1" d="M90.95,261.54c.76,5.42-1.19,10.69-2.46,15.9-.73,2.98-2.96,5.93-5.3,8.52-2.87,3.18-5.85,6.21-8.89,9.21-2.29,2.26-4.93,3.65-8,4.66-4.87,1.6-9.79,3.13-14.83,3.73-4.1.49-8.14.71-12.49-1.06-5.36-2.18-10.53-4.55-15.69-7.17-4.88-2.48-8.25-6.28-10.62-10.6-2.73-4.97-5.44-10.15-6.12-16.08-.59-5.15-1.1-10.25.22-15.3.5-1.91.2-3.81.88-5.8,2.31-6.79,6.77-11.97,11.37-17.18,7.55-8.57,17.64-11.07,28.31-12.05,5.35-.49,10.57.86,15.55,2.76,3.15,1.21,6.72,1.68,9.3,4.07,3.35,3.1,6.75,6.21,9.6,9.74,1.02,1.26,2.44,1.89,3.38,3.34,2.35,3.68,3.37,7.81,4.61,11.82,1.11,3.6,1.52,7.48,1.17,11.5ZM82.08,261.4c.17-10.64-4.18-19.09-12.6-25.25-4.17-3.05-8.69-5.97-13.88-6.94-4.98-.93-10.09-1.31-15.13-.07-4.14,1.03-8.52,2.23-11.54,5.05-3.3,3.08-6.83,6.22-9.1,10.28-1.42,2.53-3.03,5.16-3.56,7.94-2.41,12.56-.66,23.94,9.54,33.08,4.69,4.2,9.2,8.23,15.85,8.62.64.04,1.48.16,1.85.57,1.47,1.62,3.41.91,5.13,1.27,3.04.64,5.3-1.57,8.08-1.96,5-.7,9.44-2.66,12.69-6.8,1.02-1.3,2.36-2.34,3.51-3.55,5.96-6.23,8.73-13.77,9.16-22.24Z"/><path class="cls-3" d="M306.07,200.86c2.57-.12,6.29,0,9.76,1.16,6.12,2.06,12.05,4.48,17.7,7.86,6.55,3.91,11.16,9.2,14.69,15.68,2.9,5.33,4.7,11.09,5.69,17.03.38,2.26,1.25,4.39,1.2,6.79-.2,9.72-2.41,18.94-7.45,27.21-1.85,3.03-3.77,6.32-7,8.42-1.37.89-2.25,2.52-3.62,3.41-1.16.76-1.52,2.01-2.59,2.89-7.21,5.93-15.56,8.56-24.65,9.44-2.28.22-4.62-.23-6.83.96-.76.41-2.05.25-2.94-.08-6.99-2.58-14.54-3.79-20.92-7.86-2.64-1.68-4.88-4.04-7.1-6.29-2.25-2.28-5.35-3.63-6.55-7.09-.99-2.84-4.25-4.52-4.69-7.83-6.75-9.48-6.69-20.06-5.09-30.94,1.01-6.84,3.61-12.95,7.72-18.47,3.26-4.37,7.23-8,11.36-11.53,8.73-7.46,18.81-10.87,31.31-10.76ZM324.26,250.42c.04-5.4-1.33-8.58-4.78-12.29-3.89-4.18-8.75-6.31-14.27-5.93-10.44.71-18.96,6.58-19.28,18.3-.24,8.78,7.65,19.02,19.18,19.54,11.55.52,19.59-10.73,19.15-19.62Z"/><path class="cls-2" d="M296.07,334.79c-1.54.51-3.08,1.02-4.62,1.54-4.36,1.49-4.69,1.4-7.38-2.1-.49-.63-.96-1.28-1.43-1.92,4.69-.31,9.28-.13,13.43,2.47Z"/><path class="cls-2" d="M364.92,314.95c-.48,1.54-.97,3.08-1.54,4.9-2.73-.91-5.27-1.18-8.08-.22-1.93.66-4.49.85-6.43-.87,2.88-.85,5.83-.46,8.75-.5,2.92-.04,5.45-.59,6.62-3.69.02-.06.33-.1.43-.04.12.07.16.27.24.42Z"/><path class="cls-3" d="M456.99,357.88c-1.71,0-3.71-.03-5.7.01-1.32.03-2.66.31-3.47-1.23-.17-.33-.86-.48-1.34-.55-8.17-1.23-14.06-6.61-20.3-11.27-1.49-1.11-2.61-2.88-3.51-4.56-1.47-2.74-3.04-5.38-4.84-7.92-1.49-2.11-2-4.79-2.75-7.15-3.07-9.68-3.37-19.46.27-29.25,2.02-5.43,4.63-10.31,8.38-14.75,2.82-3.34,6.98-4.7,9.94-7.71,4.52-4.6,11.08-4.66,16.46-7.33.41-.2,1.05-.24,1.47-.08,3.85,1.48,7.86.72,11.8.81,6.8.16,13.07,1.5,18.83,5.55,5.85,4.11,11.76,8.3,15.63,14.22,6.19,9.47,8.16,20.13,6.49,31.45-1.47,9.97-5.88,18.45-12.35,25.99-.43.5-.83,1.07-1.36,1.45-5.04,3.59-9.7,7.83-15.74,9.76-5.72,1.82-11.51,3.31-17.9,2.55Z"/><path class="cls-3" d="M792.98,279.83c.04,4.15.42,8.4-1.15,12.32-1.43,3.57-3.4,6.91-5.02,10.42-2.1,4.56-6.71,7.04-9.19,11.27-5.65,3.16-10.79,7.16-17.3,8.83-5.55,1.42-10.92,3.25-16.81,2.55-8.06-.95-15.54-3.19-21.61-8.84-1.38-1.29-3.23-1.47-4.63-2.73-3.95-3.56-6.95-7.78-9.53-12.36-7.76-13.82-8.11-28.07-1.54-42.24,4.14-8.93,11.36-15.35,19.92-20.18,1.32-.74,2.71-1,4.25-1.08,2.08-.11,4.26-.23,5.88-1.91.76-.78,1.82-.71,2.78-.9,7.97-1.56,15.84-1.49,23.55,1.35,2.47.91,5.14,1.55,7.28,2.97,4.87,3.24,9.79,6.45,13.19,11.5,1.79,2.67,3.7,5.32,5.46,7.99,2.83,4.29,4.26,9.32,4.44,14.56.08,2.16.01,4.33.01,6.49ZM767.26,277.1c.27-2.79-1.71-6.01-4.03-9.35-2.6-3.74-6.34-5.13-10.3-5.74-3.21-.49-6.63-.12-9.92-.21-4.26-.11-7.06,1.68-9.76,4.61-8.35,9.07-5.55,21.84.46,27.88,1.62,1.64,3.74,2.03,5.61,2.99,5.42,2.79,10.94,3.45,16.64.39,7.71-4.14,11.3-10.53,11.29-20.57Z"/><path class="cls-3" d="M906.51,365.15c-21.32.61-44.12-17.79-43.85-44.84.22-23.12,18.84-44.22,44.72-44.24,24.08-.02,44.94,19.52,44.77,44.18-.17,25.31-20.78,45.33-45.64,44.9ZM943.32,320.98c.52-19.94-15.45-35.44-35.49-35.97-19.97-.53-37.06,14.78-36.9,36.16.14,19.86,15.79,35.14,36.27,35.31,19.45.16,36.42-15.61,36.12-35.5Z"/><path class="cls-3" d="M633.37,342.35c.36,12.27-9.57,24.02-24.36,24.49-13.26.43-24.75-10.79-24.94-23.97-.21-14.01,10.76-25.63,24.12-26.01,10.74-.3,25.37,9.02,25.18,25.49Z"/><path class="cls-3" d="M549.86,252.13c-5.57.56-12.55-4.89-12.04-12.81.37-5.78,7.03-12.42,12.86-12.31,5.66.11,12.43,6.9,12.35,12.46-.12,7.68-7.03,13.26-13.17,12.66Z"/><path class="cls-3" d="M955.44,224.23c-6.02.85-11.52-2.96-16.75-6.89-1.49-1.12-2.68-3.3-3.69-5.18-4.05-7.52-6.09-15.43-2.94-23.75,2.48-6.55,6.51-12.08,12.82-15.56,2.93-1.61,6.29-1.38,9.47-1.86,2.76-.42,5.67.59,8.32-.9.26-.14.74-.17.97-.02,4.23,2.74,10.09,2.38,13.17,7.62,1.3,2.22,3.48,4.06,4.94,6.42,3.96,6.41,3.97,13.16,2.26,20.13-1.16,4.75-4.33,8.59-7.73,11.47-3.2,2.7-6.61,5.69-11.03,6.97-3.81,1.1-4.28,1.55-9.82,1.55Z"/><path class="cls-3" d="M655.94,248.99c.16,4.73-1.73,8.65-5.74,11.29-2.84,1.87-6.01,3.22-8.95,4.95-1.1.65-2.25.91-3.32.59-6.2-1.86-11.57-5.41-13.42-11.62-1.88-6.3-.9-12.42,5.43-17.36,5.06-3.95,10.68-4.7,16.75-2.05,5.38,2.34,9.93,9.37,9.24,14.21Z"/><path class="cls-3" d="M830.15,201.85c9.46.64,16.73,6.65,16.62,16.06-.11,9.14-7.32,15.6-16.2,15.98-6.5.28-15.74-5.66-16.33-15.14-.23-3.74,2.17-6.76,3.32-10.12.66-1.94,2.54-3.52,4.3-3.95,3.1-.76,5.51-3.77,8.28-2.84Z"/><path class="cls-3" d="M153.85,244.92c-.14-6.34,2.93-10.69,7.71-13.67,1.77-1.1,2.93-2.9,5.25-3.51,7.05-1.85,13.48-.8,18.36,4.46,2.5,2.7,4.87,6.14,4.94,10.42.08,4.77-1.09,9.08-4.06,12.8-1.34,1.68-3,3.11-4.41,4.74-1.44,1.65-3.44,1.91-5.35,2.38-11.11,2.77-23.19-7.75-22.43-17.63Z"/><path class="cls-3" d="M421.24,229c-2.95-.02-5.17-2.58-5.2-5.97-.02-3.39,2.93-6.19,6.33-6.03,3.42.17,6.56,2.9,6.49,5.65-.09,3.3-3.79,6.38-7.62,6.35Z"/><path class="cls-3" d="M882.98,230.8c.06-4.01,3.05-6.97,6.89-6.82,3.57.13,6.24,2.87,6.21,6.38-.03,3.91-3.15,6.63-7.64,6.64-3.25.01-5.52-2.56-5.46-6.19Z"/><path class="cls-2" d="M353.62,327.52c19.73-.47,34.34,16.05,34.06,32.58-.35,20.97-16.93,35.14-34.44,34.81-17.43-.33-33.83-15.08-33.26-35.85.46-16.92,16.48-32.28,33.63-31.54Z"/><path class="cls-2" d="M263.48,339.78c6.79-.06,11.65,4.56,11.59,11-.06,5.85-5.16,10.95-10.86,10.86-5.86-.09-10.99-5.33-11.13-11.36-.13-5.71,4.57-10.45,10.41-10.49Z"/><path class="cls-2" d="M113.18,368.42c.19,15.96-13.09,29.07-29.49,28.61-17.18-.48-27.42-12.15-27.77-28.28-.31-14.03,11.1-28.62,27.93-28.43,17.04.19,29.42,12.14,29.33,28.1ZM84.84,357.93c-5.54,0-9.3,2.74-11.07,7.67-1.47,4.08-.29,8.41,3.44,11.04,2.56,1.81,5.55,2.67,8.81,2.49,2.89-.16,5.15-1.39,6.83-3.59,2.51-3.28,3.16-6.88,1.32-10.74-1.99-4.18-4.87-7.07-9.33-6.88Z"/><path class="cls-2" d="M776.5,348.83c11.3-.71,21.08,8.53,21.14,19.86.06,10.22-8.63,18.34-19.08,18.29-11.66-.05-19.8-8.18-19.9-19.66-.04-5.33,1.91-9.68,5.61-13.37,3.54-3.53,7.62-5.73,12.23-5.12Z"/><path class="cls-2" d="M717.66,355.92c3.11-.06,6.07,2.61,5.94,5.37-.12,2.5-3.55,5.55-6.19,5.5-2.37-.05-5.09-2.67-5.27-5.09-.22-2.9,2.47-5.72,5.51-5.78Z"/><path class="cls-3" d="M82.08,261.4c-.43,8.48-3.2,16.01-9.16,22.24-1.15,1.2-2.49,2.25-3.51,3.55-3.26,4.14-7.69,6.1-12.69,6.8-2.78.39-5.03,2.6-8.08,1.96-1.72-.36-3.66.35-5.13-1.27-.38-.42-1.22-.53-1.85-.57-6.65-.39-11.16-4.42-15.85-8.62-10.2-9.14-11.96-20.52-9.54-33.08.53-2.78,2.14-5.41,3.56-7.94,2.27-4.05,5.81-7.2,9.1-10.28,3.02-2.82,7.39-4.02,11.54-5.05,5.04-1.25,10.15-.86,15.13.07,5.19.97,9.71,3.89,13.88,6.94,8.42,6.16,12.77,14.62,12.6,25.25Z"/><path class="cls-1" d="M324.26,250.42c.44,8.89-7.59,20.14-19.15,19.62-11.53-.52-19.42-10.76-19.18-19.54.32-11.72,8.84-17.58,19.28-18.3,5.52-.38,10.37,1.75,14.27,5.93,3.45,3.7,4.82,6.89,4.78,12.29Z"/><path class="cls-1" d="M767.26,277.1c0,10.04-3.59,16.43-11.29,20.57-5.7,3.06-11.22,2.4-16.64-.39-1.87-.96-3.98-1.35-5.61-2.99-6.01-6.05-8.81-18.81-.46-27.88,2.7-2.93,5.5-4.73,9.76-4.61,3.29.09,6.71-.28,9.92.21,3.95.61,7.69,2,10.3,5.74,2.32,3.34,4.3,6.56,4.03,9.35Z"/><path class="cls-2" d="M943.32,320.98c.3,19.89-16.67,35.66-36.12,35.5-20.48-.17-36.13-15.45-36.27-35.31-.15-21.38,16.93-36.69,36.9-36.16,20.04.53,36.02,16.03,35.49,35.97Z"/><path class="cls-3" d="M84.84,357.93c4.46-.19,7.34,2.7,9.33,6.88,1.84,3.86,1.19,7.47-1.32,10.74-1.69,2.2-3.95,3.43-6.83,3.59-3.26.18-6.25-.69-8.81-2.49-3.73-2.63-4.9-6.97-3.44-11.04,1.78-4.93,5.54-7.68,11.07-7.67Z"/></svg>