<svg xmlns="http://www.w3.org/2000/svg" xmlns:xlink="http://www.w3.org/1999/xlink" id="ekXPz1UqIvo1" viewBox="0 0 945.43 945.43" shape-rendering="geometricPrecision" text-rendering="geometricPrecision" project-id="e30f2ecd35d44a3cafd8ee9322673484" export-id="37aff2d58fc147d38bca8d88c81bd6c9" cached="false">
<style><![CDATA[
#ekXPz1UqIvo4_tr {animation: ekXPz1UqIvo4_tr__tr 8000ms linear infinite normal forwards}@keyframes ekXPz1UqIvo4_tr__tr { 0% {transform: translate(472.715208px,472.714815px) rotate(0deg)} 25% {transform: translate(472.715208px,472.714815px) rotate(90deg)} 50% {transform: translate(472.715208px,472.714815px) rotate(180deg)} 75% {transform: translate(472.715208px,472.714815px) rotate(270deg)} 100% {transform: translate(472.715208px,472.714815px) rotate(360deg)}} #ekXPz1UqIvo12_tr {animation: ekXPz1UqIvo12_tr__tr 8000ms linear infinite normal forwards}@keyframes ekXPz1UqIvo12_tr__tr { 0% {transform: translate(135.33781px,207.03926px) rotate(720deg);animation-timing-function: cubic-bezier(0.415,0.08,0.115,0.955)} 96.25% {transform: translate(135.33781px,207.03926px) rotate(0deg)} 100% {transform: translate(135.33781px,207.03926px) rotate(0deg)}} #ekXPz1UqIvo12 {animation: ekXPz1UqIvo12_f_p 8000ms linear infinite normal forwards}@keyframes ekXPz1UqIvo12_f_p { 0% {fill: #d2dbed} 96.25% {fill: #d2dbec} 100% {fill: #d2dbec}} #ekXPz1UqIvo13_tr {animation: ekXPz1UqIvo13_tr__tr 8000ms linear infinite normal forwards}@keyframes ekXPz1UqIvo13_tr__tr { 0% {transform: translate(11.12px,29.9px) rotate(-720deg);animation-timing-function: cubic-bezier(0.415,0.08,0.115,0.955)} 96.25% {transform: translate(11.12px,29.9px) rotate(0deg)} 100% {transform: translate(11.12px,29.9px) rotate(0deg)}}
]]></style>
<defs><linearGradient id="ekXPz1UqIvo6-fill" x1="0.5" y1="0" x2="0.5" y2="1" spreadMethod="pad" gradientUnits="objectBoundingBox" gradientTransform="translate(0 0)"><stop id="ekXPz1UqIvo6-fill-0" offset="0%" stop-color="rgba(255,255,255,0)"/><stop id="ekXPz1UqIvo6-fill-1" offset="100%" stop-color="#010022"/></linearGradient></defs><g><g><g id="ekXPz1UqIvo4_tr" transform="translate(472.715208,472.714815) rotate(0)"><path d="M110.95,414.48c7.06-24.63,14-48.86,21.21-74.03-14.38-10.35-29.84-21.44-45.26-32.58-4.25-3.07-9-5.29-4.55-12.4c13.46-21.53,26.25-43.49,39.35-65.25c3.01-5.01,6.39-9.8,9.3-14.86c2.39-4.17,5.59-5.22,9.81-3.39c4.01,1.74,8.11,3.39,11.85,5.63c13.81,8.27,27.48,16.76,40.9,24.98c17.35-17.88,34.64-35.71,52.33-53.93-7.34-12.57-15.44-26.42-23.52-40.27-.98-1.69-1.97-3.38-2.84-5.12-4.59-9.22-4.06-10.94,4.63-16.33c22.19-13.76,44.13-27.95,66.62-41.21c16.08-9.48,16.29-8.86,26.34,6.73c7.78,12.07,15.97,23.88,23.76,35.94c2.7,4.18,5.12,5.54,10.35,3.44c11.28-4.52,22.83-8.55,34.56-11.75c10.22-2.79,20.83-4.18,32.74-6.46c0-13.47-.07-27.82.03-42.17.04-5.86.08-11.77.8-17.57.62-4.96,2.76-7.48,9.17-7.38c28.36.44,56.74-.12,85.11-.26c12.78-.06,14.18,1.51,13.98,14.44-.25,16.14-.51,32.28-.34,48.42.02,2.05,2.56,5.8,4.01,5.84c23.27.62,44.77,7.95,65.99,16.56c1.08.44,2.18.84,4.12,1.58c9.1-14.92,18.21-29.62,27.09-44.46c7.28-12.18,9.25-13.37,21.77-6.19c20.08,11.52,39.68,23.9,59.43,35.99c5.61,3.44,11.12,7.06,16.57,10.76c3.67,2.48,4.84,5.05,1.88,9.58-10.65,16.29-20.76,32.93-31.1,49.48c19.15,17.37,39.34,32.85,53.37,55c7.52-5.11,14.73-10.54,22.45-15.11c9.78-5.79,19.99-10.86,30-16.26c4.55-2.46,8.16-2.14,11.04,2.77c15.93,27.15,31.97,54.24,48,81.33c2.99,5.04,2.52,8.28-3.05,11.85-15.86,10.16-31.21,21.13-46.77,31.8c8.55,24.55,17.49,48.44,18.84,74.81c17,0,34.04-.02,51.08,0c12.65.02,14.42,1.68,14.43,14.35.03,28.61-.09,57.22-.16,85.82c0,1.96-.09,3.91-.21,5.87-.41,6.69-3.01,9.3-10.61,8.94-18.02-.84-36.11-.27-54.18-.27-2.42,12.87-4.52,25.77-7.38,38.51-1.64,7.32-4.23,14.46-6.9,21.49-3.35,8.82-1.63,15.07,5.89,20.65c10.98,8.14,21.9,16.38,32.68,24.79c9.24,7.21,9.45,9.05,3.64,18.85-15.3,25.81-30.64,51.59-45.81,77.48-2.07,3.54-4.2,5.37-8.1,3.16-17.9-10.15-35.76-20.36-52.62-29.96-18,17.1-36.32,34.51-55.06,52.3c5.95,10.07,12.56,21.03,18.93,32.12c3.89,6.76,7.27,13.82,11.17,20.57c2.37,4.1,1.45,6.65-2.49,8.93-10.14,5.88-20.23,11.84-30.23,17.96-14,8.57-27.79,17.47-41.89,25.87-3.83,2.29-8.37,4.29-12.69,4.53-2.8.15-6.83-2.44-8.54-4.99-10.97-16.43-21.46-33.18-31.35-48.66-24.12,5.76-47.88,11.44-73.95,17.67c0,13.82.13,29.15-.07,44.47-.08,6.08-1,12.13-1.34,18.21-.33,5.95-4.49,6.11-8.79,6.1-17.36-.04-34.73-.14-52.09-.19-10.49-.03-20.98,0-31.48-.02-11.33,0-13.56-2.07-13.65-13.67-.14-18.56-.04-37.13-.04-54.64-26.06-6.79-50.22-13.09-75.6-19.7-8.4,13.93-17.92,29.71-27.44,45.49-.88,1.46-1.69,2.98-2.65,4.39-6.22,9.14-6.77,8.46-16.02,2.35-14.66-9.69-30.09-18.23-45.26-27.13-10.54-6.18-21.11-12.31-31.85-18.11-5.52-2.98-3.71-6.79-1.75-10.47c9.4-17.65,18.98-35.2,28.16-52.16-18.09-17.02-36.64-34.47-55.54-52.25-15.5,9.82-32.09,20.15-48.46,30.82-5.43,3.54-8.83,2.37-11.93-2.85-16.09-27.09-32.24-54.15-48.43-81.17-3.22-5.37-2.51-8.81,3.06-12.65c10.03-6.91,19.22-15.03,28.91-22.44c5.89-4.5,12.07-8.62,16.55-11.8-6.8-25.14-13.21-48.84-20.04-74.1-17.06,0-35.33-.02-53.6.01-4.89,0-7.53-1.52-7.55-7.19-.1-32.02-.66-64.05-.71-96.07-.02-11.39.43-11.27,11.56-11.21c16.87.1,33.75.03,50.4.03l.03.02Zm662.71,51.37c-.68-9.12-1.15-23.07-2.85-36.87-4.57-37.12-17.52-71.28-36.29-103.62-29.04-50.02-67.62-90.29-118.6-117.84-56.16-30.35-115.92-43.13-179.7-33.85-54.55,7.94-104.42,26.89-147.36,62.31-13.16,10.85-26.98,20.94-39.7,32.29-6.5,5.8-11.91,13.15-16.59,20.57-11.4,18.05-23.45,35.89-32.79,55-17.08,34.97-26.6,72.29-28.21,111.34-2.06,50.26,6.8,98.38,29.06,143.78c18.91,38.58,44.53,71.91,77.72,99.28c33.75,27.83,71.5,48.15,113.87,59.42c40.71,10.82,81.99,12.68,123.8,7.95c41.31-4.67,78.93-19.52,114.16-40.66c14.97-8.98,30.06-18.73,42.43-30.85c15.51-15.21,28.74-32.86,42.09-50.13c9.4-12.16,18.5-24.83,25.72-38.34c22.47-42.05,31.93-87.53,33.26-139.78h-.02Z" transform="translate(-472.697155,-472.714325)" fill="#14213d"/></g><path d="M413.72,390.32h-144.72v-102.81h405.51v102.04h-142.76v321.93h-118.03v-321.16Z" fill="#14213d"/></g></g></svg>